<svg width="24" height="24" viewBox="0 0 24 24" fill="none" xmlns="http://www.w3.org/2000/svg">
<path d="M22.3294 4.89919L13.6713 0.401625C13.1657 0.139138 12.5888 0.000420494 12.001 0C11.425 0 10.8468 0.134438 10.3304 0.4035L1.67034 4.90125C0.637709 5.43731 0 6.42919 0 7.50338V16.4987C0 17.5729 0.63578 18.5648 1.67056 19.1008L10.3285 23.5984C10.8336 23.8617 11.4108 24.0005 11.9988 24C12.5868 23.9996 13.1638 23.8609 13.6694 23.5984L22.3294 19.1008C23.3621 18.5646 24 17.5708 24 16.4987V7.50131C24 6.42919 23.3642 5.43525 22.3294 4.89919ZM15.6245 18.9443L15.638 19.5907C15.638 19.6691 15.5808 19.7574 15.512 19.7895L15.0736 20.0104C15.0048 20.0404 14.945 20.0044 14.945 19.926L14.9382 19.2896C14.5642 19.4261 14.1832 19.4584 13.9424 19.374C13.8965 19.3579 13.8759 19.2996 13.8942 19.2313L14.0525 18.6471C14.0662 18.6009 14.0939 18.5546 14.1305 18.5265C14.1425 18.5158 14.1565 18.507 14.1719 18.5004C14.1969 18.4884 14.2222 18.4864 14.243 18.4944C14.5044 18.5707 14.8372 18.5346 15.1584 18.3941C15.5671 18.2134 15.8399 17.8479 15.8356 17.4866C15.8309 17.1572 15.629 17.0227 15.1355 17.0186C14.5068 17.0205 13.9194 16.9123 13.9102 16.101C13.9034 15.4344 14.2981 14.7397 14.9268 14.3019L14.9199 13.6494C14.9199 13.5692 14.975 13.4807 15.0462 13.4488L15.4704 13.2118C15.5394 13.1816 15.599 13.2199 15.599 13.2981L15.6061 13.9506C15.9181 13.8422 16.1889 13.8122 16.4343 13.8624C16.4872 13.8744 16.5123 13.9386 16.4894 14.0128L16.3244 14.5911C16.311 14.635 16.2849 14.6752 16.2485 14.7077C16.2358 14.719 16.2211 14.7285 16.205 14.7358C16.1819 14.7458 16.1613 14.7478 16.1407 14.7457C16.0282 14.7236 15.7621 14.6736 15.3421 14.8583C14.9015 15.0529 14.7479 15.3883 14.75 15.6373C14.7547 15.9345 14.9268 16.0247 15.5279 16.0329C16.3289 16.0449 16.673 16.35 16.6822 17.0548C16.6936 17.7456 16.2716 18.4905 15.6245 18.9443ZM20.163 17.8579C20.163 17.9182 20.154 17.9743 20.0966 18.0024L17.9075 19.167C17.8503 19.1972 17.8042 19.1711 17.8042 19.1108V18.6169C17.8042 18.5567 17.8456 18.5246 17.9028 18.4944L20.06 17.3661C20.1174 17.3361 20.1632 17.3619 20.1632 17.4223L20.163 17.8579ZM21.6686 6.79669L13.4763 11.2238C12.4552 11.7458 11.7025 12.3321 11.7003 13.4104V22.2429C11.7003 22.8874 11.9986 23.3051 12.4552 23.4276C12.3053 23.4512 12.1533 23.464 12.001 23.4658C11.5212 23.4658 11.0485 23.3514 10.6332 23.1364L1.97548 18.639C1.12885 18.1993 0.603423 17.3781 0.603423 16.4966V7.50131C0.603423 6.62006 1.12885 5.79881 1.97548 5.35894L10.6358 0.861375C11.0498 0.646604 11.522 0.532906 12.0033 0.532125C12.4829 0.532125 12.9556 0.6465 13.3709 0.861375L22.0312 5.35894C22.7447 5.73037 23.2267 6.37088 23.3619 7.09181C23.0704 6.55556 22.4233 6.41119 21.6686 6.79669Z" fill="white"/>
</svg>
