<svg width="16" height="16" viewBox="0 0 16 16" fill="none" xmlns="http://www.w3.org/2000/svg">
<path d="M14.0469 5.5404L9.03441 1.69078C8.7061 1.43868 8.15444 1.43981 7.79394 1.69212C7.42891 1.94706 7.38681 2.36968 7.71122 2.63618L9.79581 4.33262H3.43106C2.90566 4.33284 2.4006 4.68465 2.30094 5.12056C2.19791 5.56437 2.55453 5.92831 3.10081 5.93H6.32206L0.551002 10.3596C0.00865799 10.7746 -0.166373 11.4654 0.17522 11.9022C0.521627 12.3468 1.25903 12.3477 1.807 11.9047L4.94466 9.337C4.94466 9.337 4.89863 9.68337 4.90228 9.89143C4.99663 11.6478 6.33566 13.276 7.99363 13.9971C10.8505 15.2625 14.7077 14.1041 15.7923 10.8064C16.3081 9.07653 15.9127 7.0195 14.0468 5.54043M8.73322 11.6722C6.47688 10.4912 6.47685 7.52256 8.73322 6.34153C10.9896 5.1605 13.8253 6.64481 13.8253 9.00684C13.8253 11.3689 10.9896 12.8532 8.73322 11.6722ZM9.42038 10.6093C7.98116 9.85662 7.98116 7.96456 9.42038 7.21184C10.8596 6.45912 12.6683 7.40512 12.6683 8.91059C12.6683 10.4161 10.8596 11.3621 9.42038 10.6093Z" fill="white"/>
</svg>
