<svg width="24" height="24" viewBox="0 0 24 24" fill="none" xmlns="http://www.w3.org/2000/svg">
<path fill-rule="evenodd" clip-rule="evenodd" d="M15.172 0H10.996V5.932C10.4016 5.78849 9.79137 5.72128 9.18 5.732C4.816 5.731 2 8.305 2 12.273C2 16.391 4.655 18.536 9.755 18.541C11.458 18.541 13.033 18.391 15.172 18.011V0ZM9.734 8.977C10.25 8.977 10.654 9.027 11.142 9.177V15.425C10.546 15.5 10.17 15.525 9.708 15.525C7.568 15.525 6.403 14.383 6.403 12.315C6.403 10.19 7.623 8.977 9.734 8.977Z" fill="white"/>
<path d="M22 15.233V6.215H17.83V13.89C17.83 17.277 17.642 18.564 17.045 19.676C16.475 20.763 15.583 21.476 13.74 22.282L17.615 24C19.458 23.138 20.35 22.357 21.027 21.12C21.753 19.832 22 18.338 22 15.233ZM21.585 0H17.409V3.993H21.585V0Z" fill="white"/>
</svg>
