<svg width="26" height="26" viewBox="0 0 26 26" fill="none" xmlns="http://www.w3.org/2000/svg">
<path d="M24.1646 13.95V12.75C24.1646 6.1224 18.9233 0.75 12.4573 0.75C5.99137 0.75 0.75 6.1224 0.75 12.75C0.75 15.4512 1.62102 17.9448 3.09146 19.95" stroke="white" stroke-width="1.5" stroke-linecap="round" stroke-linejoin="round"/>
<path d="M13.6278 0.808792C13.6278 0.808792 17.14 5.54879 17.14 12.7488V13.9488M11.2863 0.808792C11.2863 0.808792 7.77413 5.54879 7.77413 12.7488V13.9488M1.4873 16.95H3.09121M1.4873 8.54999H23.4268M13.6278 24.75V17.55L17.14 24.75V17.55M20.6522 24.75H22.9936C23.4594 24.75 23.9061 24.5604 24.2354 24.2228C24.5647 23.8852 24.7497 23.4274 24.7497 22.95C24.7497 22.4726 24.5647 22.0148 24.2354 21.6772C23.9061 21.3396 23.4594 21.15 22.9936 21.15H22.4083C21.9425 21.15 21.4959 20.9604 21.1665 20.6228C20.8372 20.2852 20.6522 19.8274 20.6522 19.35C20.6522 18.8726 20.8372 18.4148 21.1665 18.0772C21.4959 17.7396 21.9425 17.55 22.4083 17.55H24.1644M6.6034 24.75V17.55H7.77413C8.39513 17.55 8.99069 17.8029 9.4298 18.2529C9.86891 18.703 10.1156 19.3135 10.1156 19.95V22.35C10.1156 22.9865 9.86891 23.597 9.4298 24.0471C8.99069 24.4971 8.39513 24.75 7.77413 24.75H6.6034Z" stroke="white" stroke-width="1.5" stroke-linecap="round" stroke-linejoin="round"/>
</svg>
