<svg width="24" height="24" viewBox="0 0 24 24" fill="none" xmlns="http://www.w3.org/2000/svg">
<g clip-path="url(#clip0_505_56)">
<path d="M20.275 0C19.8574 -2.07305e-08 19.4438 0.0819758 19.0579 0.241245C18.672 0.400515 18.3214 0.633957 18.0261 0.928239C17.7308 1.22252 17.4966 1.57188 17.3368 1.95635C17.1771 2.34083 17.0949 2.75289 17.095 3.169C17.095 4.00921 17.4301 4.815 18.0264 5.40911C18.6228 6.00323 19.4317 6.337 20.275 6.337C21.1184 6.337 21.9273 6.00323 22.5236 5.40911C23.12 4.815 23.455 4.00921 23.455 3.169C23.4552 2.75289 23.373 2.34083 23.2133 1.95635C23.0535 1.57188 22.8193 1.22252 22.524 0.928239C22.2287 0.633957 21.8781 0.400515 21.4922 0.241245C21.1063 0.0819758 20.6927 -2.07305e-08 20.275 0ZM0.545044 0.353V23.998H7.63004L7.64004 7.104H10.035C14.101 7.104 16.134 8.706 16.134 11.91C16.134 15.32 14.066 17.025 9.93004 17.025H8.79404V23.995C8.79404 23.995 10.477 24 10.908 24C14.578 24 17.578 22.8747 19.908 20.624C22.238 18.3733 23.403 15.4687 23.403 11.91C23.403 9.838 22.9804 8.007 22.135 6.417C21.5678 6.73889 20.9272 6.90935 20.275 6.912C19.293 6.912 18.315 6.509 17.621 5.816C16.9211 5.1123 16.526 4.16153 16.521 3.169C16.521 2.636 16.641 2.106 16.861 1.621C14.9137 0.775667 12.5567 0.353 9.79004 0.353H0.545044Z" fill="white"/>
</g>
<defs>
<clipPath id="clip0_505_56">
<rect width="24" height="24" fill="white"/>
</clipPath>
</defs>
</svg>
