<svg width="24" height="24" viewBox="0 0 24 24" fill="none" xmlns="http://www.w3.org/2000/svg">
<g clip-path="url(#clip0_505_20)">
<path d="M4 0C2.93913 0 1.92172 0.421428 1.17157 1.17157C0.421428 1.92172 0 2.93913 0 4V20C0 21.0609 0.421428 22.0783 1.17157 22.8284C1.92172 23.5786 2.93913 24 4 24H20C21.0609 24 22.0783 23.5786 22.8284 22.8284C23.5786 22.0783 24 21.0609 24 20V4C24 2.93913 23.5786 1.92172 22.8284 1.17157C22.0783 0.421428 21.0609 0 20 0H4ZM13.7787 17.4067C14.7387 18.18 15.6969 18.5613 16.6533 18.5507C17.24 18.5507 17.6898 18.4431 18.0027 18.228C18.1483 18.1334 18.2669 18.0026 18.3466 17.8482C18.4263 17.6939 18.4645 17.5215 18.4573 17.348C18.4594 17.1587 18.4198 16.9713 18.3415 16.799C18.2632 16.6266 18.1479 16.4736 18.004 16.3507C17.6911 16.0778 17.0991 15.804 16.228 15.5293C15.1818 15.2271 14.3751 14.836 13.808 14.356C13.2516 13.876 12.968 13.2062 12.9573 12.3467C12.9573 11.5351 13.3093 10.8556 14.0133 10.308C14.6978 9.76044 15.5733 9.48667 16.64 9.48667C18.1262 9.48667 19.3187 9.84844 20.2173 10.572L19.1907 12.1707C18.821 11.8832 18.3969 11.6737 17.944 11.5547C17.537 11.4183 17.1118 11.3441 16.6827 11.3347C16.176 11.3347 15.7702 11.4276 15.4653 11.6133C15.1631 11.8 15.012 12.0444 15.012 12.3467C15.012 12.6791 15.1973 12.9627 15.568 13.1973C15.9413 13.4231 16.5769 13.6724 17.4747 13.9453C18.56 14.268 19.3324 14.6982 19.792 15.236C20.2516 15.7738 20.4813 16.4582 20.4813 17.2893C20.4813 18.14 20.1538 18.8733 19.4987 19.4893C18.8533 20.0956 17.9147 20.4133 16.6827 20.4427C15.0693 20.4427 13.72 19.9587 12.6347 18.9907L13.7787 17.4067ZM6.40533 18.2573C6.71822 18.4529 7.09467 18.5507 7.53467 18.5507C7.99422 18.5507 8.37556 18.4187 8.67867 18.1547C8.98089 17.8809 9.13245 17.4067 9.13333 16.732V9.66267H11.1133V17.1133C11.084 18.2671 10.7516 19.0982 10.116 19.6067C9.76824 19.9007 9.36392 20.1203 8.928 20.252C8.52376 20.3751 8.10389 20.4393 7.68133 20.4427C6.948 20.4427 6.29778 20.3156 5.73067 20.0613C5.12444 19.7884 4.616 19.3044 4.20533 18.6093L5.584 17.48C5.83733 17.8222 6.11111 18.0813 6.40533 18.2573Z" fill="white"/>
</g>
<defs>
<clipPath id="clip0_505_20">
<rect width="24" height="24" fill="white"/>
</clipPath>
</defs>
</svg>
