<svg width="24" height="24" viewBox="0 0 24 24" fill="none" xmlns="http://www.w3.org/2000/svg">
<g clip-path="url(#clip0_505_62)">
<path d="M20.3073 2.7728L12.1473 8.6256C12.1089 8.65356 12.0627 8.66862 12.0153 8.66862C11.9678 8.66862 11.9216 8.65356 11.8833 8.6256L3.68966 2.7648C3.44183 2.5874 3.14988 2.48177 2.84592 2.45951C2.54195 2.43725 2.23773 2.49923 1.9667 2.63863C1.69567 2.77804 1.46832 2.98946 1.30964 3.24968C1.15096 3.50989 1.06709 3.80882 1.06726 4.1136V20.0864C1.06726 20.7264 22.9329 20.7264 22.9329 20.0864V4.12C22.9332 3.81483 22.8492 3.51549 22.6902 3.25499C22.5313 2.99448 22.3035 2.78291 22.032 2.6436C21.7605 2.50428 21.4558 2.44262 21.1514 2.46542C20.8471 2.48822 20.555 2.59459 20.3073 2.7728Z" fill="white"/>
<path d="M20.3073 9.032L12.1505 14.88C12.1121 14.908 12.0659 14.923 12.0185 14.923C11.971 14.923 11.9248 14.908 11.8865 14.88L3.68966 9.0256C3.44183 8.8482 3.14988 8.74257 2.84592 8.72031C2.54195 8.69805 2.23773 8.76003 1.9667 8.89943C1.69567 9.03883 1.46832 9.25026 1.30964 9.51048C1.15096 9.77069 1.06709 10.0696 1.06726 10.3744V20.0864C1.06726 20.3908 1.18808 20.6828 1.40317 20.8982C1.61827 21.1136 1.91006 21.2348 2.21446 21.2352H21.7857C22.0901 21.2348 22.3819 21.1136 22.597 20.8982C22.812 20.6828 22.9329 20.3908 22.9329 20.0864V10.3808C22.9329 10.0757 22.8488 9.77655 22.6898 9.51616C22.5309 9.25578 22.3032 9.04426 22.0318 8.90486C21.7605 8.76546 21.4559 8.70357 21.1517 8.726C20.8474 8.74843 20.5552 8.85431 20.3073 9.032Z" fill="#9D9D9D"/>
</g>
<defs>
<clipPath id="clip0_505_62">
<rect width="24" height="24" fill="white"/>
</clipPath>
</defs>
</svg>
