<svg width="24" height="24" viewBox="0 0 24 24" fill="none" xmlns="http://www.w3.org/2000/svg">
<g clip-path="url(#clip0_505_42)">
<path d="M21.474 5.684C20.9139 5.68444 20.3697 5.87074 19.9269 6.21368C19.4841 6.55663 19.1675 7.03682 19.027 7.579H16.13C15.5321 7.57888 14.9535 7.79086 14.4972 8.17721C14.0409 8.56357 13.7364 9.09926 13.638 9.689L13.535 10.313C13.4863 10.6081 13.3342 10.8763 13.1059 11.0696C12.8777 11.2629 12.5881 11.3687 12.289 11.368H11.288C11.1477 10.8258 10.8313 10.3455 10.3885 10.0027C9.94569 9.65979 9.40151 9.47374 8.84146 9.47374C8.28141 9.47374 7.73723 9.65979 7.2944 10.0027C6.85157 10.3455 6.53519 10.8258 6.39496 11.368H4.97296C4.81914 10.7725 4.45343 10.2536 3.94437 9.90842C3.43531 9.56327 2.81785 9.41563 2.20773 9.49316C1.5976 9.57068 1.03669 9.86806 0.630129 10.3296C0.223568 10.791 -0.000732422 11.385 -0.000732422 12C-0.000732422 12.615 0.223568 13.209 0.630129 13.6704C1.03669 14.1319 1.5976 14.4293 2.20773 14.5068C2.81785 14.5844 3.43531 14.4367 3.94437 14.0916C4.45343 13.7464 4.81914 13.2275 4.97296 12.632H6.39496C6.53485 13.1746 6.85115 13.6554 7.29411 13.9987C7.73707 14.3419 8.28157 14.5282 8.84196 14.5282C9.40235 14.5282 9.94685 14.3419 10.3898 13.9987C10.8328 13.6554 11.1491 13.1746 11.289 12.632H12.289C12.5882 12.6311 12.8781 12.7368 13.1066 12.9301C13.3351 13.1234 13.4873 13.3917 13.536 13.687L13.639 14.31C13.7372 14.8999 14.0416 15.4358 14.4979 15.8224C14.9542 16.209 15.5329 16.4211 16.131 16.421H16.501C16.6547 17.0166 17.0203 17.5356 17.5294 17.8809C18.0384 18.2261 18.6559 18.3738 19.2661 18.2964C19.8762 18.2189 20.4372 17.9215 20.8438 17.46C21.2504 16.9985 21.4748 16.4046 21.4748 15.7895C21.4748 15.1744 21.2504 14.5805 20.8438 14.119C20.4372 13.6575 19.8762 13.3601 19.2661 13.2826C18.6559 13.2052 18.0384 13.3529 17.5294 13.6981C17.0203 14.0434 16.6547 14.5624 16.501 15.158H16.131C15.8317 15.1586 15.542 15.0527 15.3137 14.8592C15.0854 14.6657 14.9334 14.3973 14.885 14.102L14.782 13.479C14.6866 12.906 14.3962 12.3835 13.96 12C14.3957 11.6159 14.6854 11.0931 14.78 10.52L14.884 9.898C14.9324 9.60269 15.0844 9.33426 15.3127 9.14077C15.541 8.94729 15.8307 8.84137 16.13 8.842H19.026C19.144 9.29969 19.388 9.71511 19.7303 10.0411C20.0726 10.367 20.4995 10.5904 20.9624 10.6859C21.4253 10.7814 21.9057 10.7451 22.3491 10.5812C22.7924 10.4174 23.1809 10.1324 23.4704 9.75879C23.7599 9.38516 23.9389 8.93783 23.9868 8.46761C24.0348 7.99738 23.95 7.52313 23.742 7.09871C23.5339 6.6743 23.211 6.31674 22.8099 6.06666C22.4088 5.81658 21.9456 5.68401 21.473 5.684M21.473 6.947C21.8079 6.947 22.1292 7.08006 22.366 7.31692C22.6029 7.55378 22.736 7.87503 22.736 8.21C22.7361 8.37594 22.7035 8.54028 22.6401 8.69363C22.5767 8.84698 22.4837 8.98633 22.3664 9.10372C22.2491 9.22111 22.1098 9.31423 21.9565 9.37776C21.8032 9.4413 21.6389 9.474 21.473 9.474C21.307 9.474 21.1427 9.4413 20.9894 9.37776C20.8361 9.31423 20.6968 9.22111 20.5795 9.10372C20.4622 8.98633 20.3692 8.84698 20.3058 8.69363C20.2424 8.54028 20.2098 8.37594 20.21 8.21C20.21 8.04405 20.2427 7.87974 20.3062 7.72644C20.3697 7.57314 20.4629 7.43386 20.5802 7.31657C20.6976 7.19927 20.837 7.10626 20.9903 7.04285C21.1437 6.97944 21.308 6.94687 21.474 6.947M2.52596 10.737C2.6919 10.7369 2.85625 10.7694 3.0096 10.8329C3.16295 10.8963 3.3023 10.9893 3.41968 11.1066C3.53707 11.2239 3.63019 11.3631 3.69372 11.5164C3.75726 11.6697 3.78996 11.8341 3.78996 12C3.78996 12.1659 3.75726 12.3303 3.69372 12.4836C3.63019 12.6369 3.53707 12.7761 3.41968 12.8934C3.3023 13.0107 3.16295 13.1037 3.0096 13.1671C2.85625 13.2306 2.6919 13.2631 2.52596 13.263C2.19099 13.263 1.86974 13.1299 1.63288 12.8931C1.39603 12.6562 1.26296 12.335 1.26296 12C1.26296 11.665 1.39603 11.3438 1.63288 11.1069C1.86974 10.8701 2.19099 10.737 2.52596 10.737ZM8.84196 10.737C9.00782 10.737 9.17205 10.7697 9.32529 10.8331C9.47852 10.8966 9.61776 10.9896 9.73504 11.1069C9.85232 11.2242 9.94535 11.3634 10.0088 11.5167C10.0723 11.6699 10.105 11.8341 10.105 12C10.105 12.335 9.97189 12.6562 9.73504 12.8931C9.49818 13.1299 9.17693 13.263 8.84196 13.263C8.50716 13.2627 8.18617 13.1295 7.94953 12.8927C7.71289 12.6559 7.57996 12.3348 7.57996 12C7.57996 11.665 7.71303 11.3438 7.94988 11.1069C8.18674 10.8701 8.50799 10.737 8.84296 10.737M18.949 14.527C19.2839 14.527 19.6052 14.6601 19.842 14.8969C20.0789 15.1338 20.212 15.455 20.212 15.79C20.212 16.125 20.0789 16.4462 19.842 16.6831C19.6052 16.9199 19.2839 17.053 18.949 17.053C18.783 17.0531 18.6187 17.0206 18.4653 16.9571C18.312 16.8937 18.1726 16.8007 18.0552 16.6834C17.9379 16.5661 17.8447 16.4269 17.7812 16.2736C17.7177 16.1203 17.685 15.9559 17.685 15.79C17.6848 15.6241 17.7174 15.4597 17.7808 15.3064C17.8442 15.153 17.9372 15.0137 18.0545 14.8963C18.1718 14.7789 18.3111 14.6858 18.4644 14.6222C18.6177 14.5587 18.782 14.526 18.948 14.526" fill="white"/>
</g>
<defs>
<clipPath id="clip0_505_42">
<rect width="24" height="24" fill="white"/>
</clipPath>
</defs>
</svg>
