<svg width="24" height="24" viewBox="0 0 24 24" fill="none" xmlns="http://www.w3.org/2000/svg">
<g clip-path="url(#clip0_505_44)">
<path d="M14.2969 0.046875L16.7454 0.063C16.7915 0.0988125 16.8289 0.12225 16.8684 0.139875C17.3122 0.3405 17.7934 0.484125 18.1933 0.75075C19.3528 1.52138 20.4851 2.33344 21.6167 3.14513C22.1426 3.52144 22.661 3.91331 23.1459 4.3395C23.5063 4.656 23.6681 5.10506 23.669 5.58394L23.6681 20.6535C23.6675 20.8637 23.6315 21.0799 23.573 21.282C23.3072 22.2034 22.7175 22.8339 21.7895 23.0801C21.3002 23.2097 20.7832 23.25 20.2757 23.2918C19.4839 23.3576 18.6892 23.3899 17.8959 23.4375L16.3952 23.5312L13.9922 23.6726L12.5149 23.7649L10.0884 23.9055L8.83442 23.9569C8.79411 23.9589 8.7568 24.0154 8.71873 24.0469C7.76436 24.0469 6.81073 24.0469 5.8483 24.0315C5.80217 23.9949 5.76711 23.9655 5.72605 23.9539C5.14442 23.7853 4.65673 23.4639 4.28173 22.9973C3.76236 22.3521 3.26886 21.687 2.76936 21.0264C2.15548 20.2147 1.52567 19.4151 0.945546 18.5801C0.604564 18.0923 0.421929 17.5113 0.422421 16.9161C0.420786 12.4654 0.421349 8.01469 0.424108 3.564C0.424108 3.43575 0.446608 3.30619 0.468733 3.17869C0.701608 1.80844 1.71598 1.07737 2.92236 0.941812C3.54861 0.8715 4.17917 0.84 4.80842 0.798375L6.47155 0.702375L7.18648 0.6555L9.34273 0.4695L10.538 0.37575L12.5179 0.235125L14.181 0.136875C14.2215 0.134063 14.2588 0.078375 14.2969 0.046875ZM4.86467 21.4095C4.96442 21.5391 5.07561 21.6621 5.1628 21.7999C5.58542 22.4612 6.19123 22.7014 6.96092 22.6502L12.1751 22.3397L18.0431 21.9851L20.9647 21.7969C21.8306 21.7273 22.2487 21.2593 22.2656 20.3906V20.2031L22.2722 5.97881C22.2729 5.55037 22.125 5.25075 21.7822 5.01131L17.6527 2.10131C16.9884 1.61794 16.2832 1.39237 15.4665 1.45687L10.842 1.79887L6.00655 2.1555L2.97148 2.39213C2.35836 2.44838 1.9783 2.82338 1.86842 3.42488C1.84171 3.57842 1.82872 3.73403 1.82961 3.88988L1.81705 16.3102C1.81273 17.124 2.06173 17.8009 2.54886 18.4234L4.86467 21.4095Z" fill="white"/>
<path d="M4.85382 21.3969L2.54888 18.4232C2.06176 17.8007 1.81276 17.124 1.81707 16.3102L1.82963 3.88987C1.82963 3.73462 1.84126 3.57712 1.86845 3.42487C1.97832 2.82356 2.35838 2.44856 2.97151 2.39212L6.00657 2.1555L10.8422 1.79887L15.4665 1.45687C16.2833 1.39237 16.9884 1.61794 17.6528 2.10131C19.0144 3.09225 20.4015 4.04812 21.7823 5.01131C22.125 5.25075 22.2729 5.55037 22.2722 5.97881L22.2656 20.2039V20.3914C22.2488 21.2593 21.8306 21.7273 20.9648 21.7969C19.9922 21.8752 19.0174 21.9259 18.0431 21.9851L12.1751 22.3395L6.96095 22.6502C6.19126 22.7014 5.58545 22.4612 5.16282 21.7999C5.07563 21.6621 4.96445 21.5391 4.85382 21.3969ZM6.05495 12.7734V19.0524L6.05645 20.2236C6.06657 20.7487 6.32382 21.0103 6.84882 21.0403C6.98063 21.0476 7.11395 21.0431 7.24651 21.0351L11.6419 20.7759L20.0353 20.2961C20.5584 20.2669 20.8001 20.0376 20.8491 19.5191C20.8586 19.4259 20.8556 19.3316 20.8556 19.2379L20.8564 7.14844C20.8564 7.07812 20.8586 7.00781 20.8543 6.9375C20.8228 6.45637 20.6162 6.26006 20.1381 6.28556L15.8123 6.53475C13.7861 6.65262 11.76 6.77125 9.73388 6.89062L6.69507 7.07306C6.3077 7.09781 6.13257 7.26487 6.07407 7.64362C6.06022 7.74407 6.05408 7.84543 6.0557 7.94681L6.05495 12.7734ZM16.7747 2.88712C16.4078 2.688 16.0093 2.622 15.5991 2.64469C14.9685 2.67919 14.3379 2.73112 13.7072 2.77669L4.71676 3.42994C4.44507 3.44962 4.17188 3.46931 3.90376 3.51787C3.81376 3.534 3.70013 3.62475 3.67238 3.70687C3.65176 3.76462 3.7427 3.88125 3.80926 3.945C3.93245 4.06275 4.07438 4.16156 4.20863 4.26787C4.5272 4.51912 4.8662 4.74825 5.15851 5.02594C5.71295 5.55244 6.35813 5.67412 7.09726 5.62069L12.9163 5.25581L19.1807 4.88006C19.2379 4.87725 19.2951 4.85962 19.4209 4.83619C19.3059 4.71675 19.2392 4.62525 19.1522 4.56075C18.8453 4.33409 18.5355 4.11145 18.2228 3.89287C17.7423 3.55438 17.2596 3.21912 16.7747 2.88712Z" fill="black"/>
<path d="M6.05492 12.75L6.05567 7.94681C6.05567 7.84556 6.05867 7.74319 6.07404 7.64362C6.13254 7.26487 6.30767 7.098 6.69504 7.07306L9.73386 6.89062L15.8122 6.53475L20.1379 6.28556C20.6162 6.26006 20.8228 6.45694 20.8541 6.9375C20.8586 7.00781 20.8564 7.07812 20.8564 7.14844L20.8556 19.2379L20.849 19.5191C20.8001 20.0376 20.5584 20.2669 20.0353 20.2961L11.6419 20.7759L7.24648 21.0351L6.84898 21.0403C6.32379 21.0103 6.06654 20.7487 6.05642 20.2243L6.05492 19.0524V12.75ZM14.636 12.7624L12.2233 9.08644C12.1391 8.95819 12.0564 8.91581 11.9012 8.93269L10.8727 9.00206L8.98085 9.14062C8.51585 9.18319 8.2346 9.62044 8.36342 10.0738L9.36542 10.1595V18.2769L8.68292 18.4695C8.38029 18.5587 8.25073 18.8138 8.35254 19.1396L10.6603 19.0071L11.5693 18.9324C11.9612 18.8679 12.1721 18.6278 12.2248 18.2359L10.9629 17.9481V11.8425L11.0567 11.9737L13.9569 16.5023C14.3832 17.1636 14.8211 17.8174 15.2702 18.4635C15.5902 18.9229 16.062 19.0635 16.5922 18.9491C16.9241 18.8782 17.2427 18.7434 17.5678 18.6386C17.7371 18.5837 17.7949 18.4826 17.7941 18.2929L17.7885 9.94912C17.7885 9.46144 17.7885 9.46144 18.2709 9.36412C18.7588 9.26587 18.881 9.07106 18.7697 8.54962L15.854 8.72681C15.5368 8.7495 15.2966 9.01462 15.2484 9.32306C15.2248 9.47175 15.2555 9.55369 15.4335 9.564L16.3162 9.6615V15.3201C15.7571 14.4671 15.197 13.6148 14.636 12.7631V12.7624ZM16.7906 2.89519C17.2692 3.22571 17.7465 3.55821 18.2224 3.89269C18.5351 4.11132 18.845 4.33403 19.152 4.56075C19.239 4.62525 19.3057 4.71675 19.4207 4.83619L19.1805 4.88006L12.9161 5.25581L7.09704 5.62069C6.35792 5.67412 5.71273 5.55244 5.15829 5.02594C4.86598 4.74844 4.52698 4.51912 4.20823 4.26787C4.07417 4.16156 3.93223 4.06275 3.80904 3.94481C3.74248 3.88106 3.65154 3.76481 3.67217 3.70669C3.69992 3.62475 3.81429 3.534 3.90354 3.51787C4.17167 3.4695 4.44485 3.44962 4.71654 3.42994L13.7072 2.77669L15.599 2.64469C16.0091 2.62219 16.4075 2.68781 16.7906 2.89519Z" fill="white"/>
<path d="M14.6462 12.7763L16.3163 15.3201V9.66131L15.4337 9.56381C15.2556 9.55369 15.2249 9.47175 15.2483 9.32306C15.2967 9.01463 15.537 8.7495 15.8539 8.72681L18.7697 8.54963C18.8811 9.07088 18.7589 9.26588 18.271 9.36394C17.7884 9.46069 17.7884 9.46069 17.7884 9.94913L17.7942 18.2929C17.7949 18.4826 17.7372 18.5837 17.5679 18.6386L16.5923 18.9491C16.062 19.0627 15.5903 18.9229 15.2704 18.4635C14.8215 17.8173 14.3837 17.1635 13.9572 16.5023L11.0565 11.9736C11.0361 11.9413 11.0127 11.9113 10.9628 11.8425V17.9481L12.2249 18.2359C12.1722 18.6278 11.9612 18.8677 11.5694 18.9324C11.2705 18.9814 10.9637 18.9887 10.6604 19.0071L8.35261 19.1396C8.2508 18.8138 8.38036 18.5587 8.68298 18.4695L9.36548 18.2769V10.1595L8.36348 10.0738C8.23467 9.62044 8.51592 9.18319 8.98092 9.14063C9.61017 9.08194 10.2422 9.04613 10.8728 9.00225C11.2155 8.97881 11.5598 8.97 11.9012 8.93269C12.0565 8.91581 12.1394 8.95819 12.2234 9.08644L14.6462 12.7763Z" fill="black"/>
</g>
<defs>
<clipPath id="clip0_505_44">
<rect width="24" height="24" fill="white"/>
</clipPath>
</defs>
</svg>
