<svg width="24" height="24" viewBox="0 0 24 24" fill="none" xmlns="http://www.w3.org/2000/svg">
<path d="M19.355 18.538C19.9992 17.5692 20.6187 16.5842 21.213 15.584C21.2931 15.4447 21.33 15.2848 21.3189 15.1246C21.3079 14.9643 21.2495 14.811 21.151 14.684C20.635 13.999 19.647 12.609 19.109 11.322C18.556 10.001 18.473 7.947 18.469 6.945C18.4705 6.56482 18.3444 6.19512 18.111 5.895L14.913 1.831C14.9002 2.01353 14.8748 2.19495 14.837 2.374C14.731 2.877 14.53 3.378 14.301 3.874C14.167 4.164 14.011 4.474 13.855 4.788L13.545 5.414C13.029 6.482 12.548 7.641 12.413 9.004C12.289 10.264 12.459 11.734 13.228 13.485C13.356 13.4957 13.4847 13.5103 13.614 13.529C14.846 13.6949 16.0023 14.2181 16.94 15.034C17.856 15.824 18.684 16.956 19.355 18.534V18.538ZM8.19905 22.569C8.27238 22.5817 8.34571 22.5883 8.41904 22.589C9.19904 22.613 10.514 22.681 11.579 22.879C12.449 23.039 14.172 23.519 15.589 23.934C16.672 24.25 17.787 23.386 17.944 22.27C18.058 21.456 18.274 20.535 18.669 19.69L18.659 19.695C17.989 17.825 17.137 16.617 16.243 15.846C15.4602 15.1639 14.4942 14.7268 13.465 14.589C11.925 14.373 10.513 14.779 9.62504 15.039C10.157 17.257 9.99304 19.868 8.20004 22.57L8.19905 22.569ZM5.53304 9.938C5.50971 10.038 5.47704 10.1347 5.43504 10.228L2.82004 16.059C2.68851 16.3517 2.64802 16.6772 2.70384 16.9932C2.75965 17.3092 2.9092 17.6011 3.13304 17.831L7.24904 22.071C9.35204 18.97 9.04504 16.051 8.08504 13.771C7.35704 12.041 6.25304 10.69 5.53504 9.94L5.53304 9.938ZM9.32004 14.01C9.93504 13.827 10.926 13.545 12.065 13.476C11.382 11.751 11.217 10.243 11.349 8.899C11.503 7.347 12.049 6.052 12.584 4.949C12.6974 4.71567 12.8067 4.49433 12.912 4.285C13.061 3.988 13.2 3.708 13.331 3.425C13.548 2.955 13.71 2.54 13.791 2.155C13.871 1.775 13.871 1.435 13.777 1.112C13.682 0.787 13.48 0.437 13.097 0.052C12.8406 -0.01484 12.5716 -0.0169363 12.3141 0.0458994C12.0567 0.108735 11.8189 0.234535 11.622 0.412L6.67204 4.864C6.39574 5.11218 6.21437 5.44874 6.15904 5.816L5.73204 8.646C6.40404 9.236 8.06005 10.962 9.06705 13.357C9.15771 13.5683 9.24204 13.786 9.32004 14.01Z" fill="white"/>
</svg>
