<svg width="24" height="24" viewBox="0 0 24 24" fill="none" xmlns="http://www.w3.org/2000/svg">
<g clip-path="url(#clip0_505_26)">
<path d="M1.89918 8.52423H5.4585C6.50318 8.53304 7.2602 8.8326 7.72955 9.42291C8.19881 10.0131 8.35375 10.8193 8.19438 11.8414C8.1324 12.3084 7.99517 12.7665 7.78267 13.2159C7.57903 13.6652 7.2957 14.0705 6.93269 14.4317C6.48999 14.8898 6.0163 15.1805 5.51162 15.304C5.00686 15.4273 4.48447 15.489 3.94446 15.489H2.35074L1.84606 18H0L1.89918 8.52423ZM3.45306 10.0308L2.6562 13.9956C2.70933 14.0044 2.76245 14.0088 2.81557 14.0088H3.00151C3.85158 14.0176 4.5599 13.9339 5.12647 13.7577C5.69313 13.5727 6.07385 12.9295 6.26864 11.8282C6.42801 10.9031 6.26864 10.37 5.79052 10.2291C5.32126 10.0882 4.73247 10.0221 4.02415 10.0308C3.91798 10.0396 3.81616 10.0441 3.71868 10.0441H3.43978L3.45306 10.0308ZM10.2973 6H12.1301L11.6121 8.52423H13.259C14.162 8.54193 14.8349 8.72696 15.2777 9.07929C15.7292 9.43172 15.862 10.1013 15.6761 11.0881L14.7863 15.489H12.9269L13.7769 11.2863C13.8654 10.8458 13.8388 10.533 13.6972 10.348C13.5557 10.163 13.2502 10.0705 12.7808 10.0705L11.3066 10.0573L10.2176 15.489H8.38483L10.2973 6ZM17.6442 8.52423H21.2035C22.2482 8.53304 23.0052 8.8326 23.4746 9.42291C23.9438 10.0131 24.0988 10.8193 23.9394 11.8414C23.8774 12.3084 23.7402 12.7665 23.5277 13.2159C23.324 13.6652 23.0407 14.0705 22.6777 14.4317C22.235 14.8898 21.7613 15.1805 21.2566 15.304C20.7519 15.4273 20.2295 15.489 19.6895 15.489H18.0958L17.5911 18H15.745L17.6442 8.52423ZM19.1981 10.0308L18.4012 13.9956C18.4543 14.0044 18.5075 14.0088 18.5606 14.0088H18.7465C19.5966 14.0176 20.3049 13.9339 20.8715 13.7577C21.4381 13.5727 21.8189 12.9295 22.0136 11.8282C22.173 10.9031 22.0136 10.37 21.5355 10.2291C21.0663 10.0882 20.4775 10.0221 19.7692 10.0308C19.6629 10.0396 19.5611 10.0441 19.4637 10.0441H19.1848L19.1981 10.0308Z" fill="white"/>
</g>
<defs>
<clipPath id="clip0_505_26">
<rect width="24" height="24" fill="white"/>
</clipPath>
</defs>
</svg>
