<svg width="24" height="24" viewBox="0 0 24 24" fill="none" xmlns="http://www.w3.org/2000/svg">
<path d="M4.92797 0.318687C3.83797 0.953556 3.83797 1.05344 4.85797 2.36221C10.5129 9.58914 11.8619 11.2963 11.9649 11.2963C12.1039 11.3158 19.9359 1.48969 20.0229 1.19235C20.0569 1.11199 19.8149 0.834159 19.5039 0.576997C19.0889 0.218807 18.6399 0.0798938 17.7919 0.0408603C16.2019 -0.0785363 15.6479 0.318687 13.6769 2.85931C12.7779 4.0108 12.0169 4.96367 12.0169 4.96367C11.9999 4.96367 11.2569 4.03031 10.3749 2.89949C9.49293 1.76867 8.47294 0.634399 8.12694 0.416271C7.33095 -0.100349 5.70596 -0.139383 4.92697 0.317539L4.92797 0.318687ZM1.29699 3.23702C0.449997 3.61357 0 3.97176 0 4.24844C0 4.38736 1.33099 6.17486 2.93998 8.21953C4.56497 10.263 5.87896 11.9713 5.87896 12.0104C5.87896 12.0494 4.54797 13.7577 2.93898 15.8024C1.31399 17.8665 0.0169999 19.6724 0.0349998 19.832C0.120999 20.3681 1.53899 21.0432 2.57598 21.0432C4.25397 21.0225 4.63397 20.685 8.17894 16.2191C9.95893 13.9758 11.4119 12.0701 11.4119 12.0104C11.4119 11.9312 9.97693 10.0656 8.21294 7.84297C5.91296 4.96367 4.78997 3.67327 4.25297 3.39545C3.44098 2.93852 2.12699 2.85931 1.29699 3.23702ZM19.7639 3.37478C19.2619 3.67327 17.9999 5.10259 15.8209 7.84182C14.0579 10.0656 12.6219 11.9312 12.6219 12.0104C12.6219 12.0907 14.0749 13.9758 15.8559 16.2191C19.3999 20.685 19.7809 21.0225 21.4579 21.0432C22.4958 21.0432 23.9128 20.3681 23.9998 19.832C24.0168 19.6529 22.7198 17.8665 21.0949 15.8219C19.4869 13.7784 18.1549 12.0506 18.1549 12.0104C18.1549 11.9702 19.4869 10.2435 21.0949 8.19886C22.7198 6.15649 24.0168 4.36784 23.9998 4.20941C23.9128 3.69279 22.6338 3.0981 21.5269 3.01774C20.7319 2.97871 20.3169 3.05677 19.7639 3.37478ZM7.95395 17.7093C5.80996 20.429 4.04597 22.7308 4.01097 22.8295C3.97697 22.9099 4.21897 23.1877 4.53097 23.446C4.94497 23.8031 5.39496 23.942 6.24196 23.9822C7.81595 24.1004 8.40294 23.6837 10.3919 21.1029C11.2559 19.9916 11.9999 19.0594 12.0169 19.0594C12.0339 19.0594 12.7779 19.9916 13.6599 21.1235C15.6829 23.7043 16.2189 24.0809 17.7919 23.9822C18.6399 23.942 19.0889 23.8031 19.5039 23.446C19.8149 23.1877 20.0569 22.9099 20.0229 22.8307C19.9359 22.5322 12.1029 12.7061 11.9649 12.7267C11.8959 12.7267 10.0979 14.97 7.95395 17.7093Z" fill="white"/>
</svg>
