<svg width="24" height="24" viewBox="0 0 24 24" fill="none" xmlns="http://www.w3.org/2000/svg">
<path d="M12 7.5H7.5M7.5 7.5H5.978C5.171 7.5 4.345 7.688 3.848 8.324C3.318 9.003 2.75 10.159 2.75 12C2.75 13.84 3.318 14.997 3.848 15.676C4.345 16.312 5.171 16.5 5.978 16.5H7.5M7.5 7.5V5.978C7.5 5.171 7.688 4.345 8.324 3.848C9.003 3.318 10.159 2.75 12 2.75C13.84 2.75 14.997 3.318 15.676 3.848C16.312 4.345 16.5 5.171 16.5 5.978V7.5M12 16.5H16.5M16.5 16.5H18.021C18.828 16.5 19.655 16.312 20.151 15.676C20.682 14.997 21.25 13.841 21.25 12C21.25 10.16 20.682 9.003 20.152 8.324C19.655 7.688 18.828 7.5 18.022 7.5H16.5M16.5 16.5V18.021C16.5 18.828 16.312 19.655 15.676 20.151C14.997 20.682 13.841 21.25 12 21.25C10.16 21.25 9.003 20.682 8.324 20.152C7.688 19.655 7.5 18.828 7.5 18.022V16.5M16.5 7.5V10C16.5 10.5304 16.2893 11.0391 15.9142 11.4142C15.5391 11.7893 15.0304 12 14.5 12H9.5C8.96957 12 8.46086 12.2107 8.08579 12.5858C7.71071 12.9609 7.5 13.4696 7.5 14V16.5" stroke="white" stroke-width="1.5" stroke-linecap="round" stroke-linejoin="round"/>
<path d="M15 18.5C15 18.6989 14.921 18.8897 14.7803 19.0303C14.6397 19.171 14.4489 19.25 14.25 19.25C14.0511 19.25 13.8603 19.171 13.7197 19.0303C13.579 18.8897 13.5 18.6989 13.5 18.5C13.5 18.3011 13.579 18.1103 13.7197 17.9697C13.8603 17.829 14.0511 17.75 14.25 17.75C14.4489 17.75 14.6397 17.829 14.7803 17.9697C14.921 18.1103 15 18.3011 15 18.5ZM9 5.5C9 5.30109 9.07902 5.11032 9.21967 4.96967C9.36032 4.82902 9.55109 4.75 9.75 4.75C9.94891 4.75 10.1397 4.82902 10.2803 4.96967C10.421 5.11032 10.5 5.30109 10.5 5.5C10.5 5.69891 10.421 5.88968 10.2803 6.03033C10.1397 6.17098 9.94891 6.25 9.75 6.25C9.55109 6.25 9.36032 6.17098 9.21967 6.03033C9.07902 5.88968 9 5.69891 9 5.5Z" fill="white"/>
</svg>
