<svg width="24" height="24" viewBox="0 0 24 24" fill="none" xmlns="http://www.w3.org/2000/svg">
<path d="M20.698 11.911C20.698 12.355 20.472 12.427 19.908 12.427C19.312 12.427 19.202 12.327 19.138 11.873C19.02 10.721 18.242 9.743 16.937 9.633C16.519 9.599 16.419 9.44299 16.419 8.92699C16.419 8.44699 16.493 8.21899 16.865 8.21899C19.13 8.22899 20.698 10.051 20.698 11.909V11.911ZM23.998 11.911C23.998 8.45499 21.66 4.80099 16.258 4.80099H5.52C5.302 4.80099 5.166 4.91099 5.166 5.11099C5.166 5.21999 5.248 5.31999 5.322 5.37099C5.71 5.68099 6.292 6.02499 7.052 6.40699C7.795 6.77899 8.375 7.02299 8.955 7.25899C9.201 7.35899 9.291 7.46699 9.291 7.60299C9.291 7.79299 9.155 7.91099 8.891 7.91099H0.372C0.118 7.91099 0 8.075 0 8.237C0 8.373 0.044 8.49099 0.162 8.60899C0.852 9.33499 1.958 10.205 3.562 11.213C5.028 12.123 6.542 12.953 8.095 13.705C8.331 13.815 8.403 13.941 8.403 14.077C8.395 14.231 8.277 14.357 8.003 14.357H4.1C3.884 14.357 3.756 14.477 3.756 14.657C3.756 14.757 3.836 14.883 3.946 14.983C4.834 15.791 6.257 16.671 8.153 17.477C10.683 18.557 13.247 19.198 16.133 19.198C21.598 19.198 24 15.111 24 11.909L23.998 11.911ZM16.865 17.015C14.071 17.015 11.733 14.739 11.733 11.901C11.733 9.10699 14.063 6.86099 16.865 6.86099C19.728 6.86099 21.976 9.10099 21.976 11.901C21.9797 12.5734 21.8501 13.2398 21.5946 13.8617C21.3391 14.4837 20.9628 15.0488 20.4875 15.5243C20.0122 15.9999 19.4473 16.3765 18.8255 16.6324C18.2037 16.8883 17.5374 17.0183 16.865 17.015Z" fill="white"/>
</svg>
