<svg width="24" height="24" viewBox="0 0 24 24" fill="none" xmlns="http://www.w3.org/2000/svg">
<path d="M16.0126 2.80055C16.0126 2.80055 15.7358 2.88055 15.2654 3.02721C15.1824 2.78722 15.0717 2.48056 14.9057 2.18723C14.3799 1.21393 13.605 0.707273 12.6642 0.69394C12.595 0.69394 12.5396 0.69394 12.4704 0.707273C12.4428 0.680607 12.4151 0.640608 12.3874 0.613942C11.9862 0.187286 11.4604 -0.0127084 10.8377 0.000624577C9.63396 0.0406235 8.43019 0.880602 7.4478 2.3739C6.75597 3.4272 6.24402 4.74717 6.09182 5.76047C4.70818 6.1738 3.73962 6.46712 3.71195 6.46712C3.00629 6.68045 2.99245 6.70712 2.8956 7.33377C2.82641 7.81375 1 21.4667 1 21.4667L16.1925 24V2.77389C16.1233 2.77389 16.0541 2.78722 16.0126 2.80055ZM12.4981 3.85386C11.6956 4.09385 10.8101 4.36051 9.93836 4.61384C10.1874 3.69386 10.6579 2.78722 11.239 2.18723C11.4604 1.96057 11.7509 1.72058 12.1107 1.57392C12.4428 2.2539 12.5119 3.20054 12.4981 3.85386ZM10.8516 0.773938C11.1283 0.773938 11.3774 0.82727 11.5849 0.9606C11.2528 1.1206 10.9484 1.36059 10.644 1.66725C9.88302 2.45389 9.28805 3.69386 9.05283 4.8805C8.3195 5.09382 7.61384 5.30715 6.94969 5.50715C7.36478 3.6272 8.99748 0.82727 10.8516 0.773938ZM8.49937 11.427C8.58239 12.667 11.9862 12.947 12.1799 15.8669C12.3321 18.1602 10.9208 19.7334 8.87296 19.8534C6.43774 20.0001 5.08176 18.6135 5.08176 18.6135L5.59371 16.4935C5.59371 16.4935 6.94969 17.4802 8.02893 17.4135C8.73459 17.3735 8.98365 16.8135 8.96981 16.4269C8.85912 14.8002 6.09182 14.8936 5.92579 12.227C5.77358 9.9737 7.30943 7.70709 10.6855 7.49376C12 7.41376 12.6642 7.73376 12.6642 7.73376L11.8893 10.5204C11.8893 10.5204 11.0314 10.147 10.0075 10.2004C8.51321 10.2937 8.48553 11.2003 8.49937 11.427ZM13.3006 3.61386C13.2868 3.02721 13.2176 2.20057 12.927 1.49392C13.8403 1.66725 14.2969 2.65389 14.4906 3.25387C14.1447 3.36054 13.7434 3.48053 13.3006 3.61386ZM16.6906 23.9467L23 22.44C23 22.44 20.288 4.7605 20.2742 4.6405C20.2604 4.52051 20.1497 4.45384 20.0528 4.44051C19.956 4.42718 18.1849 4.40051 18.1849 4.40051C18.1849 4.40051 17.1057 3.3872 16.6906 3.00055V23.9467Z" fill="white"/>
</svg>
