<svg width="24" height="24" viewBox="0 0 24 24" fill="none" xmlns="http://www.w3.org/2000/svg">
<path d="M24 12C24 12.7956 23.6839 13.5587 23.1213 14.1213C22.5587 14.6839 21.7956 15 21 15C20.2044 15 19.4413 14.6839 18.8787 14.1213C18.3161 13.5587 18 12.7956 18 12C18 11.2044 18.3161 10.4413 18.8787 9.87868C19.4413 9.31607 20.2044 9 21 9C21.7956 9 22.5587 9.31607 23.1213 9.87868C23.6839 10.4413 24 11.2044 24 12ZM15 21C15 21.7956 14.6839 22.5587 14.1213 23.1213C13.5587 23.6839 12.7956 24 12 24C11.2044 24 10.4413 23.6839 9.87868 23.1213C9.31607 22.5587 9 21.7956 9 21C9 20.2044 9.31607 19.4413 9.87868 18.8787C10.4413 18.3161 11.2044 18 12 18C12.7956 18 13.5587 18.3161 14.1213 18.8787C14.6839 19.4413 15 20.2044 15 21ZM15 12C15 12.7956 14.6839 13.5587 14.1213 14.1213C13.5587 14.6839 12.7956 15 12 15C11.2044 15 10.4413 14.6839 9.87868 14.1213C9.31607 13.5587 9 12.7956 9 12C9 11.2044 9.31607 10.4413 9.87868 9.87868C10.4413 9.31607 11.2044 9 12 9C12.7956 9 13.5587 9.31607 14.1213 9.87868C14.6839 10.4413 15 11.2044 15 12ZM21 6C20.2044 6 19.4413 5.68393 18.8787 5.12132C18.3161 4.55871 18 3.79565 18 3C18 2.20435 18.3161 1.44129 18.8787 0.87868C19.4413 0.31607 20.2044 0 21 0C21.7956 0 22.5587 0.31607 23.1213 0.87868C23.6839 1.44129 24 2.20435 24 3C24 3.79565 23.6839 4.55871 23.1213 5.12132C22.5587 5.68393 21.7956 6 21 6ZM21 5.5C21.663 5.5 22.2989 5.23661 22.7678 4.76777C23.2366 4.29893 23.5 3.66304 23.5 3C23.5 2.33696 23.2366 1.70107 22.7678 1.23223C22.2989 0.763392 21.663 0.5 21 0.5C20.337 0.5 19.7011 0.763392 19.2322 1.23223C18.7634 1.70107 18.5 2.33696 18.5 3C18.5 3.66304 18.7634 4.29893 19.2322 4.76777C19.7011 5.23661 20.337 5.5 21 5.5ZM3 24C2.20435 24 1.44129 23.6839 0.87868 23.1213C0.31607 22.5587 0 21.7956 0 21C0 20.2044 0.31607 19.4413 0.87868 18.8787C1.44129 18.3161 2.20435 18 3 18C3.79565 18 4.55871 18.3161 5.12132 18.8787C5.68393 19.4413 6 20.2044 6 21C6 21.7956 5.68393 22.5587 5.12132 23.1213C4.55871 23.6839 3.79565 24 3 24ZM3 23.5C3.66304 23.5 4.29893 23.2366 4.76777 22.7678C5.23661 22.2989 5.5 21.663 5.5 21C5.5 20.337 5.23661 19.7011 4.76777 19.2322C4.29893 18.7634 3.66304 18.5 3 18.5C2.33696 18.5 1.70107 18.7634 1.23223 19.2322C0.763392 19.7011 0.5 20.337 0.5 21C0.5 21.663 0.763392 22.2989 1.23223 22.7678C1.70107 23.2366 2.33696 23.5 3 23.5ZM21 24C20.2044 24 19.4413 23.6839 18.8787 23.1213C18.3161 22.5587 18 21.7956 18 21C18 20.2044 18.3161 19.4413 18.8787 18.8787C19.4413 18.3161 20.2044 18 21 18C21.7956 18 22.5587 18.3161 23.1213 18.8787C23.6839 19.4413 24 20.2044 24 21C24 21.7956 23.6839 22.5587 23.1213 23.1213C22.5587 23.6839 21.7956 24 21 24ZM21 23.5C21.663 23.5 22.2989 23.2366 22.7678 22.7678C23.2366 22.2989 23.5 21.663 23.5 21C23.5 20.337 23.2366 19.7011 22.7678 19.2322C22.2989 18.7634 21.663 18.5 21 18.5C20.337 18.5 19.7011 18.7634 19.2322 19.2322C18.7634 19.7011 18.5 20.337 18.5 21C18.5 21.663 18.7634 22.2989 19.2322 22.7678C19.7011 23.2366 20.337 23.5 21 23.5ZM6 12C6 12.7956 5.68393 13.5587 5.12132 14.1213C4.55871 14.6839 3.79565 15 3 15C2.20435 15 1.44129 14.6839 0.87868 14.1213C0.31607 13.5587 0 12.7956 0 12C0 11.2044 0.31607 10.4413 0.87868 9.87868C1.44129 9.31607 2.20435 9 3 9C3.79565 9 4.55871 9.31607 5.12132 9.87868C5.68393 10.4413 6 11.2044 6 12ZM15 3C15 3.79565 14.6839 4.55871 14.1213 5.12132C13.5587 5.68393 12.7956 6 12 6C11.2044 6 10.4413 5.68393 9.87868 5.12132C9.31607 4.55871 9 3.79565 9 3C9 2.20435 9.31607 1.44129 9.87868 0.87868C10.4413 0.31607 11.2044 0 12 0C12.7956 0 13.5587 0.31607 14.1213 0.87868C14.6839 1.44129 15 2.20435 15 3ZM12 5.5C12.663 5.5 13.2989 5.23661 13.7678 4.76777C14.2366 4.29893 14.5 3.66304 14.5 3C14.5 2.33696 14.2366 1.70107 13.7678 1.23223C13.2989 0.763392 12.663 0.5 12 0.5C11.337 0.5 10.7011 0.763392 10.2322 1.23223C9.76339 1.70107 9.5 2.33696 9.5 3C9.5 3.66304 9.76339 4.29893 10.2322 4.76777C10.7011 5.23661 11.337 5.5 12 5.5ZM6 3C6 3.79565 5.68393 4.55871 5.12132 5.12132C4.55871 5.68393 3.79565 6 3 6C2.20435 6 1.44129 5.68393 0.87868 5.12132C0.31607 4.55871 0 3.79565 0 3C0 2.20435 0.31607 1.44129 0.87868 0.87868C1.44129 0.31607 2.20435 0 3 0C3.79565 0 4.55871 0.31607 5.12132 0.87868C5.68393 1.44129 6 2.20435 6 3ZM3 5.5C3.66304 5.5 4.29893 5.23661 4.76777 4.76777C5.23661 4.29893 5.5 3.66304 5.5 3C5.5 2.33696 5.23661 1.70107 4.76777 1.23223C4.29893 0.763392 3.66304 0.5 3 0.5C2.33696 0.5 1.70107 0.763392 1.23223 1.23223C0.763392 1.70107 0.5 2.33696 0.5 3C0.5 3.66304 0.763392 4.29893 1.23223 4.76777C1.70107 5.23661 2.33696 5.5 3 5.5Z" fill="white"/>
</svg>
