<svg width="24" height="24" viewBox="0 0 24 24" fill="none" xmlns="http://www.w3.org/2000/svg">
<path d="M24 12.066V20.2699C24 20.4922 23.9459 20.7122 23.8409 20.9169C23.7359 21.1215 23.5822 21.3065 23.389 21.4609C23.1957 21.6153 22.9669 21.7359 22.7161 21.8155C22.4653 21.8951 22.1978 21.932 21.9293 21.9242L21.752 21.912L12 20.9034V12.066H24ZM9.33333 12.066V20.6275L2.336 19.9035C1.69094 19.8368 1.09754 19.5774 0.667364 19.174C0.237186 18.7706 -0.00014151 18.251 6.33031e-08 17.7129V12.066H9.33333ZM21.752 0.0127684C22.0185 -0.0147877 22.289 0.0023642 22.5473 0.0632009C22.8056 0.124038 23.0465 0.227313 23.2555 0.366866C23.4646 0.506419 23.6375 0.679392 23.7641 0.875466C23.8906 1.07154 23.9681 1.2867 23.992 1.50811L24 1.65488V9.85883H12V1.02143L21.752 0.0127684ZM9.33333 1.29733V9.85883H6.33031e-08V4.21186C-0.00014151 3.6738 0.237186 3.15423 0.667364 2.75083C1.09754 2.34743 1.69094 2.08799 2.336 2.02127L9.33333 1.29733Z" fill="white"/>
</svg>
