<svg width="24" height="24" viewBox="0 0 24 24" fill="none" xmlns="http://www.w3.org/2000/svg">
<g clip-path="url(#clip0_575_385)">
<path d="M24 18.588C23.6507 18.7199 23.2652 18.7195 22.9162 18.5869C22.5671 18.4543 22.2786 18.1986 22.105 17.868L18.655 13.097L18.155 12.43L14.152 17.874C13.989 18.1909 13.7162 18.4375 13.3845 18.5678C13.0529 18.6981 12.6851 18.7031 12.35 18.582L17.508 11.662L12.71 5.411C13.055 5.28667 13.4323 5.28503 13.7784 5.40633C14.1244 5.52764 14.4181 5.76449 14.61 6.077L18.186 10.907L21.782 6.097C21.9463 5.78579 22.2192 5.54579 22.5488 5.42263C22.8785 5.29947 23.2419 5.30174 23.57 5.429L21.708 7.9L19.186 11.183C19.116 11.2455 19.0599 11.322 19.0216 11.4077C18.9832 11.4934 18.9634 11.5861 18.9634 11.68C18.9634 11.7739 18.9832 11.8666 19.0216 11.9523C19.0599 12.038 19.116 12.1145 19.186 12.177L23.99 18.589L24 18.588ZM0.00201311 11.576L0.422013 9.501C1.57601 5.398 6.28001 3.691 9.51601 6.231C11.411 7.72 11.884 9.828 11.791 12.204H1.11601C0.943013 16.447 4.00501 19.009 7.92001 17.7C8.55458 17.4714 9.12258 17.089 9.57317 16.5871C10.0238 16.0852 10.3429 15.4795 10.502 14.824C10.709 14.158 11.05 14.044 11.676 14.236C11.5715 15.0483 11.2842 15.8264 10.8358 16.5117C10.3874 17.1971 9.78948 17.7719 9.08701 18.193C7.92651 18.8281 6.59485 19.0799 5.28258 18.9123C3.9703 18.7448 2.74466 18.1664 1.78101 17.26C0.828356 16.1872 0.25245 14.8324 0.141013 13.402C0.141013 13.167 0.0610131 12.947 0.00701311 12.736C0.00213563 12.3497 -0.000197752 11.9633 1.31065e-05 11.577L0.00201311 11.576ZM1.12901 11.29H10.783C10.723 8.214 8.78201 6.032 6.19301 6.012C3.31101 5.972 1.24901 8.106 1.12201 11.276L1.12901 11.29Z" fill="white"/>
</g>
<defs>
<clipPath id="clip0_575_385">
<rect width="24" height="24" fill="white"/>
</clipPath>
</defs>
</svg>
