<svg width="24" height="24" viewBox="0 0 24 24" fill="none" xmlns="http://www.w3.org/2000/svg">
<path d="M14.2702 13.7987H14.0024C13.7929 13.9307 13.6997 14.1828 13.7929 14.3988L14.7941 16.9311C15.7604 16.295 16.4938 15.3469 16.878 14.2308L14.2818 13.7987H14.2702ZM10.2537 14.1468C10.2238 14.0488 10.1652 13.9628 10.086 13.9005C10.0068 13.8382 9.91085 13.8026 9.8113 13.7987H9.71817L7.13364 14.2428C7.51783 15.3469 8.25127 16.283 9.21756 16.9191L10.2071 14.4348V14.3988C10.2537 14.3388 10.2537 14.2308 10.2537 14.1468ZM12.3842 15.1189C12.3277 15.0148 12.2339 14.9377 12.1229 14.904C12.0119 14.8704 11.8926 14.8829 11.7904 14.9389C11.7089 14.9989 11.6507 15.0349 11.6158 15.1189H11.6042L10.3352 17.4832C11.2433 17.7952 12.2212 17.8552 13.1642 17.6272C13.3272 17.5912 13.5018 17.5432 13.6648 17.4832L12.3958 15.1189H12.3842ZM16.4007 9.6342L14.4448 11.3984L14.4565 11.4344C14.4121 11.4725 14.3756 11.5194 14.3492 11.5723C14.3227 11.6251 14.3069 11.683 14.3025 11.7423C14.2982 11.8016 14.3054 11.8613 14.3239 11.9176C14.3423 11.974 14.3716 12.026 14.4099 12.0705C14.4681 12.1425 14.538 12.1905 14.6195 12.2145L14.6311 12.2265L17.1574 12.9706C17.2389 11.8065 16.9944 10.6303 16.4007 9.6342ZM12.78 9.82623C12.7917 10.0783 12.9896 10.2703 13.2341 10.2583C13.3272 10.2583 13.4087 10.2343 13.4785 10.1983H13.4902L15.6207 8.62608C14.8088 7.80489 13.7574 7.28193 12.6287 7.13789L12.78 9.82623ZM10.5215 10.1983C10.7194 10.3303 10.9871 10.2943 11.1268 10.0903C11.1851 10.0183 11.2083 9.93424 11.22 9.83823H11.2316L11.3713 7.13789C11.1967 7.16189 11.0221 7.1979 10.8358 7.2339C9.90444 7.44993 9.04293 7.92999 8.36769 8.62608L10.5098 10.1983H10.5215ZM9.36891 12.2265C9.60175 12.1665 9.74145 11.9145 9.6716 11.6745C9.6716 11.5784 9.61339 11.5064 9.54354 11.4464V11.4344L7.58768 9.5982C6.98229 10.6303 6.72617 11.8065 6.85423 12.9826L9.36891 12.2385V12.2265ZM11.2782 13.0186L12 13.3787L12.7218 13.0186L12.8964 12.2145L12.3958 11.5784H11.5925L11.0919 12.2145L11.2782 13.0186ZM23.9563 14.6028L21.8957 5.39767C21.7909 4.89361 21.465 4.48556 21.0342 4.26953L12.6869 0.153019C12.2561 -0.0510064 11.7439 -0.0510064 11.3015 0.153019L2.9658 4.26953C2.53505 4.48556 2.20907 4.89361 2.10429 5.39767L0.0436575 14.6028C-0.0145525 14.8429 -0.0145525 15.0829 0.0436575 15.3109C0.0552995 15.3829 0.0785835 15.4549 0.101868 15.5269C0.136794 15.635 0.195004 15.755 0.253214 15.851C0.28814 15.899 0.311424 15.947 0.357992 15.983L6.12079 23.3999C6.14407 23.3999 6.179 23.4479 6.179 23.4719C6.29542 23.5799 6.40019 23.664 6.50497 23.736C6.64468 23.832 6.80766 23.904 6.97065 23.94C7.09871 24 7.23842 24 7.3432 24H16.7965C16.878 24 16.9595 23.964 17.0293 23.94C17.0876 23.928 17.1458 23.904 17.1923 23.892C17.2389 23.868 17.2738 23.856 17.3204 23.832C17.3786 23.808 17.4368 23.772 17.495 23.736C17.6347 23.64 17.7628 23.5199 17.8792 23.3999L18.0538 23.1599L23.642 15.983C23.7584 15.839 23.8399 15.683 23.8981 15.5269C23.9214 15.4549 23.9447 15.3829 23.9563 15.3109C24.0146 15.0829 24.0146 14.8309 23.9563 14.6028ZM15.3063 18.1913C15.3296 18.2633 15.3529 18.3353 15.3878 18.3953C15.3413 18.4913 15.318 18.5993 15.3529 18.7073C15.4926 18.9954 15.6207 19.2594 15.7953 19.5234C15.8884 19.6555 15.9816 19.7995 16.0747 19.9315C16.0747 19.9675 16.1096 20.0275 16.1213 20.0755C16.261 20.3155 16.1911 20.6276 15.9466 20.7836C15.7022 20.9396 15.3995 20.8436 15.2598 20.6036C15.2481 20.5676 15.2365 20.5436 15.2248 20.5076C15.2016 20.4716 15.1783 20.3995 15.155 20.3995C15.0968 20.2195 15.0502 20.0635 15.0153 19.9075C14.9105 19.6075 14.8174 19.3194 14.666 19.0434C14.6055 18.9603 14.5192 18.901 14.4215 18.8754L14.3284 18.6833C12.8266 19.2594 11.1851 19.2594 9.70652 18.6713L9.5901 18.8874C9.50861 18.8994 9.42712 18.9354 9.36891 18.9954C9.20592 19.2834 9.0895 19.5834 8.98472 19.9195C8.94979 20.0755 8.90322 20.2315 8.84502 20.3995C8.82173 20.3995 8.79845 20.4836 8.77516 20.5196C8.73039 20.6485 8.63778 20.7538 8.5177 20.8123C8.39762 20.8708 8.2599 20.8778 8.13485 20.8316C8.0098 20.7854 7.90766 20.69 7.85089 20.5662C7.79413 20.4424 7.78739 20.3004 7.83216 20.1715C7.8438 20.1355 7.86709 20.1115 7.87873 20.0755C7.9253 20.0395 7.9253 19.9795 7.9253 19.9435C8.03008 19.7995 8.11157 19.6675 8.2047 19.5234C8.39098 19.2714 8.54232 18.9834 8.65874 18.6953C8.6702 18.5939 8.65823 18.4911 8.62382 18.3953L8.70531 18.1793C7.34106 17.3449 6.3187 16.0264 5.82974 14.4708L5.5969 14.5068C5.52093 14.4426 5.4272 14.4048 5.32913 14.3988C5.01479 14.4588 4.73539 14.5548 4.43269 14.6628C4.30463 14.7348 4.15329 14.7948 4.00194 14.8429C3.96701 14.8549 3.92045 14.8669 3.85059 14.8789C3.72548 14.9177 3.59071 14.9058 3.47384 14.8455C3.35698 14.7853 3.26686 14.6813 3.22193 14.5548C3.14043 14.2788 3.26849 13.9907 3.5479 13.8947C3.57119 13.8947 3.60611 13.8827 3.64104 13.8827V13.8707H3.65268L3.78074 13.8467C3.94373 13.7987 4.10672 13.7987 4.25806 13.7987C4.56076 13.7987 4.86345 13.7267 5.1545 13.6547C5.24763 13.5947 5.31749 13.5227 5.3757 13.4267L5.5969 13.3667C5.35241 11.7345 5.71332 10.0903 6.59811 8.72209L6.43512 8.57807C6.43512 8.47006 6.40019 8.36204 6.34198 8.27803C6.10914 8.07401 5.86466 7.89399 5.5969 7.73797C5.45719 7.66596 5.31749 7.58195 5.17778 7.48594C5.1545 7.46193 5.10793 7.42593 5.08465 7.40193L5.07301 7.38992C4.84016 7.1979 4.78195 6.88586 4.94494 6.63383C5.04972 6.51381 5.18942 6.45381 5.35241 6.45381C5.48047 6.46581 5.5969 6.51381 5.70167 6.59782L5.80645 6.68184C5.92287 6.78985 6.02765 6.92186 6.13243 7.04188C6.34198 7.26991 6.56318 7.48594 6.80766 7.66596C6.9008 7.71396 7.00558 7.72597 7.11036 7.70196L7.28499 7.83398C8.15814 6.87386 9.29905 6.20178 10.5447 5.91374C10.8358 5.84173 11.1501 5.79372 11.4528 5.76972L11.4645 5.55369C11.5449 5.48099 11.6017 5.38466 11.6275 5.27766C11.6391 4.96562 11.6158 4.65358 11.5692 4.35354C11.5343 4.19752 11.511 4.0295 11.4994 3.86148V3.71746C11.4761 3.42943 11.674 3.1774 11.9534 3.14139C12.2328 3.10539 12.4657 3.32142 12.5006 3.59745V3.86148C12.489 4.0295 12.4657 4.19752 12.4308 4.35354C12.3842 4.65358 12.3609 4.96562 12.3725 5.27766C12.3958 5.39767 12.454 5.48169 12.5355 5.54169L12.5472 5.76972C14.1305 5.91374 15.5974 6.64583 16.6917 7.83398L16.878 7.68996C16.9828 7.71396 17.0876 7.70196 17.1807 7.65396C17.4252 7.47393 17.658 7.25791 17.8559 7.02988C17.9607 6.90986 18.0655 6.78985 18.1819 6.66983C18.2168 6.64583 18.2634 6.59782 18.2983 6.59782C18.4962 6.3818 18.8106 6.3818 18.9852 6.59782C19.2064 6.78985 19.1948 7.11389 18.9852 7.31791C18.9852 7.34192 18.9503 7.36592 18.9154 7.38992C18.7564 7.52004 18.5848 7.63267 18.4031 7.72597C18.1353 7.88198 17.8792 8.06201 17.658 8.26603C17.5882 8.35004 17.5532 8.44606 17.5649 8.55407L17.3786 8.72209C18.2724 10.0788 18.6381 11.7326 18.4031 13.3547L18.6243 13.4147C18.6709 13.5107 18.7524 13.5827 18.8455 13.6307C19.1366 13.7147 19.4392 13.7627 19.7419 13.7987H20.2193C20.2542 13.8347 20.3124 13.8467 20.359 13.8587C20.6384 13.8947 20.8246 14.1588 20.7897 14.4468C20.7315 14.7228 20.5103 14.9269 20.2309 14.8909C20.196 14.8789 20.1494 14.8789 20.1494 14.8669V14.8549C20.0796 14.8549 20.033 14.8429 19.9864 14.8309C19.8351 14.7828 19.6954 14.7228 19.5673 14.6508C19.2646 14.5308 18.9852 14.4468 18.6709 14.3988C18.5661 14.3988 18.473 14.3988 18.4031 14.4948C18.3216 14.4828 18.2518 14.4708 18.1819 14.4588C17.7046 16.031 16.6568 17.3512 15.3063 18.1913Z" fill="white"/>
</svg>
