<svg width="24" height="24" viewBox="0 0 24 24" fill="none" xmlns="http://www.w3.org/2000/svg">
<g clip-path="url(#clip0_505_70)">
<path d="M11.267 1.1699e-06C6.79104 -0.0149988 -1.81996 10.246 1.39704 12.964L2.18704 13.633C1.97455 14.2049 1.8992 14.8187 1.96704 15.425C2.05104 16.265 2.48504 17.069 3.18704 17.691C3.85304 18.281 4.72904 18.655 5.57904 18.655C6.98504 21.895 10.199 23.883 13.965 23.995C18.005 24.115 21.398 22.219 22.819 18.813C22.912 18.573 23.307 17.497 23.307 16.546C23.307 15.59 22.767 15.194 22.422 15.194C22.412 15.157 22.344 14.908 22.25 14.608C22.156 14.308 22.06 14.098 22.06 14.098C22.435 13.535 22.442 13.033 22.392 12.748C22.339 12.395 22.192 12.095 21.896 11.784C21.6 11.473 20.994 11.154 20.143 10.916L19.697 10.792C19.695 10.773 19.673 9.739 19.654 9.295C19.64 8.975 19.612 8.473 19.457 7.98C19.271 7.312 18.949 6.727 18.546 6.353C19.658 5.201 20.352 3.931 20.35 2.842C20.347 0.747001 17.774 0.113001 14.604 1.426L13.932 1.711L12.7 0.504001C12.304 0.159001 11.817 0.00200117 11.267 1.1699e-06ZM11.34 0.873001C11.5067 0.873001 11.6617 0.892335 11.805 0.931001C12.102 1.015 13.085 2.155 13.085 2.155C13.085 2.155 11.259 3.168 9.56504 4.581C7.28504 6.338 5.56004 8.892 4.52804 11.663C3.71704 11.821 3.00204 12.281 2.56504 12.916C2.30404 12.698 1.81704 12.276 1.73104 12.112C1.03304 10.786 2.49204 8.21 3.51204 6.755C5.83404 3.44 9.37004 0.867001 11.34 0.873001ZM14.626 4.146C14.666 4.144 14.686 4.196 14.654 4.22C14.511 4.33 14.355 4.48 14.241 4.634C14.2366 4.63988 14.2339 4.64685 14.2332 4.65416C14.2325 4.66147 14.2338 4.66884 14.237 4.67545C14.2402 4.68206 14.2452 4.68766 14.2514 4.69164C14.2575 4.69562 14.2647 4.69782 14.272 4.698C14.931 4.702 15.859 4.933 16.464 5.272C16.505 5.295 16.476 5.375 16.43 5.364C15.515 5.154 14.016 4.995 12.46 5.374C11.07 5.714 10.01 6.237 9.23604 6.8C9.19604 6.828 9.15004 6.777 9.18104 6.74C10.077 5.705 11.18 4.805 12.168 4.3C12.202 4.282 12.238 4.319 12.22 4.352C12.141 4.495 11.99 4.799 11.942 5.03C11.935 5.065 11.974 5.093 12.004 5.072C12.619 4.652 13.688 4.204 14.626 4.146ZM17.649 7.351L17.705 7.352C17.8674 7.3586 18.025 7.40905 18.161 7.498C18.695 7.853 18.771 8.714 18.799 9.343C18.814 9.703 18.858 10.572 18.873 10.821C18.907 11.392 19.057 11.472 19.36 11.572C19.53 11.629 19.69 11.67 19.923 11.736C20.629 11.934 21.048 12.136 21.313 12.394C21.47 12.556 21.543 12.727 21.566 12.891C21.649 13.499 21.094 14.251 19.624 14.932C18.017 15.678 16.067 15.867 14.72 15.717L14.249 15.664C13.171 15.519 12.556 16.911 13.203 17.865C13.62 18.48 14.755 18.88 15.891 18.88C18.495 18.88 20.496 17.769 21.241 16.808C21.2625 16.7807 21.2825 16.7524 21.301 16.723C21.337 16.668 21.307 16.638 21.261 16.669C20.653 17.085 17.951 18.738 15.061 18.24C15.061 18.24 14.71 18.183 14.389 18.058C14.134 17.958 13.601 17.714 13.536 17.167C15.869 17.887 17.337 17.206 17.337 17.206C17.3508 17.2001 17.3624 17.1899 17.3699 17.1769C17.3775 17.164 17.3807 17.1489 17.379 17.134C17.3782 17.1252 17.3756 17.1166 17.3714 17.1088C17.3672 17.101 17.3614 17.0941 17.3546 17.0886C17.3477 17.083 17.3398 17.0788 17.3313 17.0763C17.3228 17.0738 17.3139 17.073 17.305 17.074C17.305 17.074 15.394 17.357 13.587 16.696C13.784 16.056 14.307 16.288 15.097 16.351C16.3262 16.4247 17.559 16.2915 18.744 15.957C19.562 15.723 20.636 15.26 21.471 14.601C21.752 15.219 21.851 15.9 21.851 15.9C21.851 15.9 22.07 15.86 22.251 15.973C22.424 16.079 22.55 16.299 22.464 16.868C22.288 17.931 21.836 18.794 21.077 19.588C20.6027 20.1013 20.0379 20.523 19.411 20.832C19.0704 21.012 18.708 21.1653 18.324 21.292C15.461 22.227 12.53 21.199 11.585 18.992C11.5087 18.8231 11.4455 18.6486 11.396 18.47C10.993 17.015 11.336 15.27 12.404 14.171C12.469 14.101 12.536 14.018 12.536 13.915C12.536 13.828 12.481 13.736 12.434 13.672C12.06 13.129 10.765 12.206 11.025 10.418C11.212 9.134 12.335 8.229 13.382 8.283L13.648 8.298C14.101 8.325 14.498 8.383 14.871 8.398C15.496 8.426 16.058 8.335 16.724 7.78C16.949 7.593 17.129 7.43 17.434 7.379C17.462 7.374 17.526 7.351 17.649 7.351ZM17.671 9.531C17.6509 9.53116 17.6309 9.53283 17.611 9.536C17.276 9.59 17.264 10.004 17.383 10.576C17.451 10.896 17.57 11.171 17.703 11.341C17.879 11.3203 18.045 11.3203 18.201 11.341C18.29 11.136 18.305 10.784 18.225 10.399C18.113 9.864 17.964 9.527 17.671 9.531ZM14.011 11.077C13.6464 11.0752 13.2906 11.1894 12.995 11.403C12.835 11.52 12.684 11.683 12.705 11.781C12.713 11.813 12.736 11.837 12.793 11.844C12.924 11.859 13.385 11.627 13.915 11.594C14.289 11.571 14.599 11.688 14.838 11.794C15.077 11.898 15.224 11.967 15.281 11.907C15.318 11.869 15.307 11.797 15.25 11.703C15.132 11.511 14.89 11.316 14.632 11.206C14.4357 11.122 14.2246 11.0781 14.011 11.077ZM18.093 11.887C17.922 11.884 17.78 12.073 17.776 12.307C17.772 12.543 17.907 12.737 18.079 12.739C18.251 12.741 18.393 12.554 18.397 12.319C18.401 12.083 18.265 11.89 18.093 11.887ZM14.513 12.059C14.463 12.059 14.4114 12.0617 14.358 12.067C14.047 12.117 13.875 12.219 13.765 12.314C13.671 12.396 13.613 12.487 13.613 12.551C13.6129 12.5609 13.6148 12.5708 13.6185 12.58C13.6222 12.5892 13.6277 12.5976 13.6347 12.6047C13.6416 12.6118 13.6499 12.6174 13.6591 12.6212C13.6683 12.625 13.6781 12.627 13.688 12.627C13.758 12.627 13.916 12.564 13.916 12.564C14.2354 12.4446 14.58 12.4088 14.917 12.46C15.074 12.478 15.147 12.487 15.182 12.434C15.192 12.418 15.204 12.385 15.172 12.334C15.109 12.231 14.862 12.065 14.513 12.059ZM16.773 12.459C16.646 12.459 16.538 12.51 16.49 12.607C16.415 12.761 16.525 12.97 16.736 13.073C16.946 13.177 17.179 13.136 17.256 12.983C17.331 12.828 17.221 12.619 17.01 12.516C16.9365 12.4788 16.8554 12.46 16.773 12.459ZM5.13804 12.483C5.18604 12.483 5.23571 12.484 5.28704 12.486C6.01704 12.526 7.09304 13.086 7.33904 14.676C7.55604 16.086 7.21104 17.519 5.89004 17.745C5.76671 17.765 5.64204 17.7737 5.51604 17.771C4.29604 17.738 2.97704 16.639 2.84604 15.336C2.70104 13.896 3.43704 12.788 4.74004 12.525C4.85804 12.5003 4.99071 12.4863 5.13804 12.483ZM5.06804 13.41C4.9093 13.4084 4.75196 13.4399 4.60611 13.5026C4.46025 13.5652 4.3291 13.6577 4.22104 13.774C3.84104 14.192 3.78204 14.762 3.85504 14.964C3.88204 15.037 3.92504 15.058 3.95504 15.062C4.01904 15.07 4.11504 15.023 4.17504 14.862L4.19204 14.81C4.22862 14.6806 4.28137 14.5562 4.34904 14.44C4.44933 14.287 4.60627 14.1801 4.78535 14.1428C4.96443 14.1055 5.151 14.1408 5.30404 14.241C5.57004 14.415 5.67304 14.741 5.55904 15.051C5.50104 15.212 5.40504 15.52 5.42604 15.772C5.46904 16.283 5.78304 16.489 6.06604 16.51C6.34004 16.52 6.53204 16.367 6.58104 16.254C6.61004 16.187 6.58604 16.147 6.57004 16.129C6.52704 16.076 6.45704 16.092 6.39004 16.108C6.33795 16.1225 6.28413 16.1299 6.23004 16.13C6.17266 16.1313 6.11583 16.1185 6.06456 16.0927C6.01329 16.0669 5.96916 16.0289 5.93604 15.982C5.85804 15.862 5.86304 15.682 5.94904 15.478L5.98904 15.386C6.12704 15.078 6.35704 14.561 6.09904 14.069C5.90404 13.699 5.58604 13.467 5.20504 13.419C5.15933 13.4125 5.11322 13.4091 5.06704 13.409L5.06804 13.41Z" fill="white"/>
</g>
<defs>
<clipPath id="clip0_505_70">
<rect width="24" height="24" fill="white"/>
</clipPath>
</defs>
</svg>
