<svg width="15" height="15" viewBox="0 0 15 15" fill="none" xmlns="http://www.w3.org/2000/svg">
<g clip-path="url(#clip0_575_383)">
<path d="M7.49991 0.500001L7.86891 0.162001C7.82206 0.110765 7.76506 0.0698477 7.70153 0.0418532C7.638 0.0138587 7.56934 -0.000598907 7.49991 -0.000598907C7.43049 -0.000598907 7.36182 0.0138587 7.29829 0.0418532C7.23476 0.0698477 7.17776 0.110765 7.13091 0.162001L7.49991 0.500001ZM7.49991 13.5L7.10691 13.809C7.1537 13.8685 7.21338 13.9166 7.28146 13.9496C7.34954 13.9827 7.42423 13.9999 7.49991 13.9999C7.57559 13.9999 7.65029 13.9827 7.71837 13.9496C7.78644 13.9166 7.84612 13.8685 7.89291 13.809L7.49991 13.5ZM7.99991 15V0.500001H6.99991V15H7.99991ZM7.89291 13.191L5.01591 9.53L4.22991 10.148L7.10691 13.81L7.89291 13.191ZM5.23691 3.708L7.86991 0.838001L7.13091 0.162001L4.49991 3.032L5.23691 3.708ZM7.13091 0.838001L9.76291 3.708L10.4999 3.033L7.86891 0.163001L7.13091 0.838001ZM9.98391 9.529L7.10691 13.191L7.89291 13.809L10.7699 10.148L9.98391 9.529ZM9.76291 3.709C10.4835 4.49561 10.9011 5.51262 10.9414 6.57861C10.9817 7.6446 10.642 8.69024 9.98291 9.529L10.7699 10.148C11.5755 9.12266 11.9906 7.84345 11.9412 6.54042C11.8917 5.2374 11.3809 3.99433 10.4999 3.033L9.76291 3.709ZM5.01591 9.53C4.35694 8.69112 4.0174 7.64442 4.05788 6.57843C4.09836 5.51244 4.51622 4.49549 5.23691 3.709L4.49991 3.032C3.6189 3.99333 3.1081 5.2364 3.05865 6.53942C3.00919 7.84245 3.4243 9.12066 4.22991 10.146L5.01591 9.53Z" fill="white"/>
</g>
<defs>
<clipPath id="clip0_575_383">
<rect width="15" height="15" fill="white"/>
</clipPath>
</defs>
</svg>
