<svg width="24" height="24" viewBox="0 0 24 24" fill="none" xmlns="http://www.w3.org/2000/svg">
<g clip-path="url(#clip0_576_395)">
<path d="M12 23.956C11.658 23.956 11.34 23.867 11.043 23.713L8.014 21.975C7.559 21.733 7.787 21.645 7.924 21.601C8.538 21.403 8.652 21.359 9.29 21.006C9.358 20.962 9.45 20.984 9.518 21.028L11.841 22.371C11.931 22.415 12.046 22.415 12.114 22.371L21.201 17.287C21.291 17.243 21.337 17.155 21.337 17.045V6.899C21.337 6.789 21.292 6.701 21.201 6.657L12.114 1.596C12.023 1.552 11.909 1.552 11.841 1.596L2.754 6.657C2.663 6.701 2.617 6.811 2.617 6.899V17.045C2.617 17.133 2.663 17.243 2.754 17.287L5.236 18.674C6.58 19.334 7.422 18.564 7.422 17.794V7.78C7.422 7.648 7.536 7.516 7.696 7.516H8.857C8.994 7.516 9.13 7.626 9.13 7.78V17.793C9.13 19.532 8.151 20.544 6.443 20.544C5.919 20.544 5.509 20.544 4.348 19.994L1.957 18.674C1.66909 18.5153 1.42866 18.2828 1.26046 18.0003C1.09225 17.7179 1.00235 17.3957 1 17.067V6.921C1 6.261 1.364 5.645 1.957 5.315L11.044 0.229998C11.34 0.0786791 11.6676 -0.000225067 12 -0.000225067C12.3324 -0.000225067 12.66 0.0786791 12.956 0.229998L22.044 5.314C22.636 5.644 23 6.26 23 6.92V17.066C23 17.726 22.636 18.342 22.044 18.673L12.957 23.756C12.655 23.8869 12.3292 23.9543 12 23.954M14.801 16.977C10.816 16.977 9.996 15.217 9.996 13.72C9.996 13.588 10.11 13.456 10.269 13.456H11.453C11.59 13.456 11.703 13.544 11.703 13.676C11.886 14.842 12.41 15.414 14.824 15.414C16.737 15.414 17.557 14.996 17.557 14.006C17.557 13.434 17.329 13.016 14.346 12.73C11.863 12.487 10.315 11.96 10.315 10.045C10.315 8.262 11.863 7.205 14.46 7.205C17.375 7.205 18.81 8.174 18.992 10.287C18.9898 10.3585 18.9657 10.4276 18.923 10.485C18.878 10.529 18.81 10.573 18.741 10.573H17.557C17.4995 10.5716 17.444 10.5515 17.3989 10.5158C17.3538 10.4801 17.3215 10.4307 17.307 10.375C17.033 9.165 16.327 8.768 14.46 8.768C12.364 8.768 12.114 9.472 12.114 10.001C12.114 10.639 12.41 10.837 15.234 11.189C18.035 11.541 19.356 12.047 19.356 13.939C19.333 15.877 17.694 16.977 14.801 16.977Z" fill="white"/>
</g>
<defs>
<clipPath id="clip0_576_395">
<rect width="24" height="24" fill="white"/>
</clipPath>
</defs>
</svg>
