<svg width="24" height="24" viewBox="0 0 24 24" fill="none" xmlns="http://www.w3.org/2000/svg">
<path d="M18.9777 24H0.957331C0.342565 24 -0.112686 23.2409 0.0245645 22.4448L3.56551 1.91144C3.75305 0.794395 4.2976 0 5.15907 0H23.0768C23.6695 0 24.1085 0.731683 23.9764 1.4993L20.3555 22.5409C20.2086 23.3946 19.6369 24 18.9777 24ZM6.09413 20.7904L14.3818 12.8826C14.885 12.3998 14.9921 11.3657 14.5349 10.7779L9.05917 3.05265C8.15696 1.77973 6.61698 3.70643 7.51918 4.97929L12.1666 11.5361L4.86015 18.5077C3.69249 19.6219 4.92647 21.9045 6.09413 20.7904ZM16.2262 18.0557H11.8275C10.5603 18.0557 10.5603 20.5984 11.8275 20.5984H16.2262C17.4745 20.5984 17.4745 18.0557 16.2262 18.0557Z" fill="white"/>
</svg>
