<svg width="20" height="16" viewBox="0 0 20 16" fill="none" xmlns="http://www.w3.org/2000/svg">
<g clip-path="url(#clip0_582_375)">
<path d="M17.2156 9.12188C16.5875 9.12188 15.9656 9.26563 15.4031 9.54375C15.2187 9.17188 15.0281 8.84688 14.9969 8.60313C14.9594 8.31875 14.9187 8.15 14.9625 7.8125C15.0062 7.475 15.2031 6.99688 15.2 6.9625C15.1969 6.92813 15.1562 6.75625 14.7531 6.75313C14.35 6.75 14.0031 6.83125 13.9625 6.9375C13.8906 7.13125 13.8344 7.33125 13.7969 7.53438C13.725 7.9 12.9906 9.20625 12.575 9.8875C12.4375 9.62188 12.3219 9.3875 12.2969 9.2C12.2594 8.91563 12.2187 8.74688 12.2625 8.40938C12.3062 8.07188 12.5031 7.59375 12.5 7.55938C12.4969 7.525 12.4562 7.35313 12.0531 7.35C11.65 7.34688 11.3031 7.42813 11.2625 7.53438C11.2219 7.64063 11.1781 7.89063 11.0969 8.13125C11.0156 8.37188 10.0375 10.5469 9.78123 11.1125C9.64998 11.4 9.53748 11.6313 9.45623 11.7875C9.44373 11.8125 9.43436 11.8281 9.42811 11.8406C9.43748 11.825 9.44373 11.8094 9.44373 11.8156C9.37498 11.95 9.33436 12.025 9.33436 12.025V12.0281C9.28123 12.1281 9.22186 12.2188 9.19373 12.2188C9.17498 12.2188 9.13436 11.9563 9.20311 11.5969C9.34998 10.8406 9.69686 9.66563 9.69373 9.625C9.69061 9.60313 9.75936 9.4 9.46561 9.29063C9.18123 9.1875 9.07811 9.35938 9.05311 9.35938C9.02811 9.35938 9.00936 9.42188 9.00936 9.42188C9.00936 9.42188 9.32498 8.09688 8.40311 8.09688C7.82811 8.09688 7.02811 8.72813 6.63436 9.3C6.38748 9.43438 5.85311 9.725 5.29061 10.0344C5.07498 10.1531 4.85311 10.275 4.64373 10.3906C4.62811 10.375 4.61561 10.3594 4.59998 10.3438C3.48123 9.15 1.41561 8.30625 1.50311 6.70313C1.53436 6.11875 1.73748 4.58438 5.47498 2.72188C8.53748 1.19688 10.9844 1.61563 11.4062 2.54688C12.0125 3.875 10.0969 6.34688 6.91561 6.70313C5.70311 6.8375 5.06561 6.36875 4.90623 6.19375C4.74061 6.00938 4.71561 6 4.65311 6.03438C4.54998 6.09063 4.61561 6.25313 4.65311 6.35C4.74686 6.59688 5.13748 7.03438 5.80311 7.25313C6.38748 7.44375 7.80936 7.55 9.52811 6.88438C11.4594 6.14063 12.9625 4.06875 12.5219 2.33438C12.0719 0.571879 9.14998 -0.00624585 6.38748 0.975004C4.74061 1.55938 2.95936 2.47813 1.67811 3.675C0.156232 5.1 -0.0875178 6.34063 0.0124822 6.85938C0.368732 8.7 2.90623 9.9 3.92186 10.7875C3.87186 10.8156 3.82498 10.8406 3.78123 10.8656C3.27186 11.1188 1.33748 12.1313 0.853107 13.2C0.306232 14.4125 0.943732 15.2813 1.36248 15.4C2.66873 15.7625 4.00623 15.1094 4.72498 14.0375C5.44373 12.9656 5.35623 11.5656 5.02498 10.9281C5.02186 10.9188 5.01561 10.9125 5.01248 10.9031C5.14373 10.825 5.27811 10.7469 5.41248 10.6688C5.67186 10.5156 5.92498 10.375 6.14686 10.2531C6.02186 10.5906 5.93123 10.9969 5.88436 11.5844C5.82811 12.2719 6.11248 13.1625 6.48123 13.5125C6.64373 13.6656 6.84061 13.6688 6.96248 13.6688C7.39373 13.6688 7.58748 13.3125 7.80311 12.8875C8.06873 12.3688 8.30311 11.7656 8.30311 11.7656C8.30311 11.7656 8.00936 13.3969 8.81248 13.3969C9.10623 13.3969 9.39998 13.0188 9.53123 12.825V12.8281C9.53123 12.8281 9.53748 12.8156 9.55311 12.7906C9.58436 12.7438 9.59998 12.7156 9.59998 12.7156V12.7063C9.71873 12.5031 9.97811 12.0375 10.3687 11.2688C10.875 10.275 11.3594 9.03438 11.3594 9.03438C11.4062 9.30625 11.4719 9.575 11.5531 9.84063C11.6406 10.1375 11.825 10.4625 11.9719 10.7781C11.8531 10.9406 11.7812 11.0344 11.7812 11.0344C11.7812 11.0375 11.7812 11.0375 11.7844 11.0406C11.6906 11.1656 11.5844 11.3 11.475 11.4313C11.075 11.9063 10.6 12.45 10.5375 12.6063C10.4625 12.7906 10.4812 12.9281 10.625 13.0344C10.7312 13.1156 10.9187 13.1281 11.1156 13.1125C11.475 13.0875 11.7281 13 11.85 12.9438C12.075 12.8625 12.2875 12.7531 12.4812 12.6125C12.8719 12.325 13.1094 11.9125 13.0875 11.3688C13.075 11.0688 12.9781 10.7688 12.8594 10.4875C12.8937 10.4375 12.9312 10.3844 12.9656 10.3313C13.5844 9.42813 14.0625 8.4375 14.0625 8.4375C14.1094 8.70938 14.175 8.97813 14.2562 9.24375C14.3312 9.49688 14.4781 9.775 14.6125 10.0469C14.0312 10.5188 13.6719 11.0656 13.5469 11.425C13.3156 12.0906 13.4969 12.3906 13.8375 12.4594C13.9906 12.4906 14.2094 12.4188 14.3719 12.35C14.6125 12.2688 14.8406 12.1531 15.0469 12.0031C15.4375 11.7156 15.8156 11.3125 15.7906 10.7656C15.7812 10.5188 15.7125 10.2719 15.6219 10.0344C16.1125 9.82813 16.75 9.71563 17.5625 9.80938C19.3031 10.0125 19.6437 11.1 19.5781 11.5531C19.5125 12.0063 19.1469 12.2594 19.025 12.3344C18.9031 12.4094 18.8656 12.4375 18.875 12.4938C18.8906 12.575 18.9469 12.5719 19.05 12.5531C19.1937 12.5281 19.9625 12.1844 19.9969 11.3438C20.0469 10.2813 19.025 9.1125 17.2156 9.12188ZM3.80623 13.6438C3.23123 14.2719 2.42498 14.5094 2.07811 14.3094C1.70623 14.0938 1.85311 13.1688 2.56248 12.5C2.99373 12.0938 3.54998 11.7188 3.91873 11.4875C4.00311 11.4375 4.12498 11.3625 4.27498 11.2719C4.29998 11.2563 4.31248 11.25 4.31248 11.25C4.34061 11.2313 4.37186 11.2156 4.40311 11.1969C4.66248 12.1469 4.41248 12.9844 3.80623 13.6438ZM8.00623 10.7875C7.80623 11.2781 7.38436 12.5281 7.12811 12.4625C6.90936 12.4063 6.77498 11.4531 7.08436 10.5156C7.24061 10.0438 7.57186 9.48125 7.76873 9.2625C8.08436 8.90938 8.43123 8.79688 8.51248 8.9375C8.62186 9.12188 8.13123 10.4813 8.00623 10.7875ZM11.475 12.4438C11.3906 12.4875 11.3125 12.5156 11.275 12.4938C11.2469 12.4781 11.3094 12.4188 11.3094 12.4188C11.3094 12.4188 11.7437 11.9531 11.9156 11.7406C12.0156 11.6156 12.1312 11.4688 12.2562 11.3063C12.2562 11.3219 12.2594 11.3375 12.2594 11.3563C12.2562 11.9156 11.7187 12.2938 11.475 12.4438ZM14.15 11.8344C14.0875 11.7906 14.0969 11.6438 14.3062 11.1875C14.3875 11.0094 14.575 10.7094 14.9 10.4219C14.9375 10.5313 14.9562 10.6438 14.9594 10.7594C14.9562 11.4625 14.4531 11.725 14.15 11.8344Z" fill="white"/>
</g>
<defs>
<clipPath id="clip0_582_375">
<rect width="20" height="16" fill="white"/>
</clipPath>
</defs>
</svg>
