<svg width="16" height="16" viewBox="0 0 16 16" fill="none" xmlns="http://www.w3.org/2000/svg">
<path d="M2.99998 7.375C3.09943 7.375 3.19482 7.33549 3.26514 7.26516C3.33547 7.19484 3.37498 7.09946 3.37498 7V2.5C3.37498 2.46685 3.38815 2.43505 3.41159 2.41161C3.43503 2.38817 3.46682 2.375 3.49998 2.375H9.12498V5.5C9.12498 5.59946 9.16449 5.69484 9.23481 5.76516C9.30514 5.83549 9.40052 5.875 9.49998 5.875H12.625V7C12.625 7.09946 12.6645 7.19484 12.7348 7.26516C12.8051 7.33549 12.9005 7.375 13 7.375C13.0994 7.375 13.1948 7.33549 13.2651 7.26516C13.3355 7.19484 13.375 7.09946 13.375 7V5.5C13.375 5.45067 13.3653 5.40181 13.3464 5.35623C13.3276 5.31065 13.2999 5.26924 13.265 5.23438L9.76498 1.73438C9.69462 1.66426 9.59931 1.62492 9.49998 1.625H3.49998C3.26791 1.625 3.04535 1.71719 2.88126 1.88128C2.71716 2.04538 2.62498 2.26794 2.62498 2.5V7C2.62498 7.09946 2.66449 7.19484 2.73481 7.26516C2.80514 7.33549 2.90052 7.375 2.99998 7.375ZM9.87498 2.905L12.095 5.125H9.87498V2.905ZM14.125 13C14.125 13.0995 14.0855 13.1948 14.0151 13.2652C13.9448 13.3355 13.8494 13.375 13.75 13.375H12C11.9005 13.375 11.8051 13.3355 11.7348 13.2652C11.6645 13.1948 11.625 13.0995 11.625 13V9.5C11.625 9.40054 11.6645 9.30516 11.7348 9.23483C11.8051 9.16451 11.9005 9.125 12 9.125C12.0994 9.125 12.1948 9.16451 12.2651 9.23483C12.3355 9.30516 12.375 9.40054 12.375 9.5V12.625H13.75C13.8494 12.625 13.9448 12.6645 14.0151 12.7348C14.0855 12.8052 14.125 12.9005 14.125 13ZM5.61435 12.25C5.59713 12.4234 5.54167 12.5908 5.45197 12.7401C5.36227 12.8895 5.24056 13.0171 5.0956 13.1138C4.79435 13.3156 4.41623 13.375 4.07248 13.375C3.76282 13.372 3.45477 13.33 3.1556 13.25C3.05979 13.2232 2.97854 13.1595 2.92972 13.0728C2.88091 12.9861 2.86852 12.8836 2.89529 12.7878C2.92206 12.692 2.98579 12.6108 3.07247 12.5619C3.15915 12.5131 3.26167 12.5007 3.35748 12.5275C3.58935 12.59 4.33123 12.7219 4.68185 12.4888C4.73686 12.4515 4.78244 12.4019 4.81498 12.344C4.84753 12.2861 4.86614 12.2214 4.86935 12.155C4.90498 11.8781 4.73935 11.7638 3.98185 11.545C3.39998 11.3769 2.52123 11.1231 2.63373 10.2362C2.65082 10.0668 2.70491 9.90323 2.79217 9.757C2.87943 9.61077 2.99774 9.48549 3.13873 9.39C3.8331 8.92188 4.96248 9.2025 5.08873 9.235C5.13733 9.24663 5.18311 9.26786 5.22339 9.29743C5.26367 9.32701 5.29764 9.36434 5.32329 9.40722C5.34894 9.45011 5.36576 9.49769 5.37276 9.54717C5.37976 9.59665 5.3768 9.64703 5.36405 9.69535C5.3513 9.74367 5.32903 9.78896 5.29853 9.82855C5.26804 9.86814 5.22994 9.90123 5.18647 9.92589C5.143 9.95054 5.09504 9.96626 5.04542 9.97212C4.99579 9.97798 4.94549 9.97386 4.89748 9.96C4.6606 9.8975 3.90685 9.77562 3.55748 10.0125C3.50509 10.048 3.46161 10.0952 3.43039 10.1502C3.39917 10.2053 3.38107 10.2668 3.37748 10.33C3.35185 10.5312 3.51123 10.6288 4.18998 10.8244C4.8081 11.005 5.7406 11.2744 5.61435 12.25ZM8.49998 9.125C7.46623 9.125 6.62498 10.0781 6.62498 11.25C6.62498 12.4219 7.4656 13.375 8.49998 13.375C8.86359 13.3735 9.21721 13.2559 9.50935 13.0394L9.73498 13.265C9.76967 13.3003 9.81102 13.3284 9.85662 13.3476C9.90223 13.3669 9.9512 13.3769 10.0007 13.3772C10.0502 13.3774 10.0993 13.3678 10.145 13.349C10.1908 13.3302 10.2324 13.3025 10.2675 13.2675C10.3025 13.2325 10.3302 13.1909 10.3491 13.1452C10.368 13.0994 10.3776 13.0504 10.3774 13.0009C10.3773 12.9514 10.3673 12.9024 10.3481 12.8567C10.3289 12.8111 10.3009 12.7697 10.2656 12.735L10.0212 12.4906C10.2546 12.1191 10.3773 11.6888 10.375 11.25C10.375 10.0775 9.53435 9.125 8.49998 9.125ZM8.49998 12.625C7.87998 12.625 7.37498 12.0081 7.37498 11.25C7.37498 10.4919 7.87935 9.875 8.49998 9.875C9.1206 9.875 9.62498 10.4919 9.62498 11.25C9.6262 11.489 9.57387 11.7252 9.47185 11.9412L9.2656 11.735C9.19512 11.6656 9.10007 11.6268 9.00114 11.6272C8.90221 11.6275 8.80743 11.6669 8.73743 11.7368C8.66744 11.8067 8.62791 11.9015 8.62745 12.0004C8.62699 12.0993 8.66564 12.1944 8.73498 12.265L8.96935 12.4994C8.82632 12.581 8.66464 12.6242 8.49998 12.625Z" fill="white"/>
</svg>
