<svg width="115" height="24" viewBox="0 0 115 24" fill="none" xmlns="http://www.w3.org/2000/svg">
<path d="M17.9589 17.5239L14.137 5.06542H11.1197L7.29676 17.5239L3.50862 5.05708H0.0378418L5.5702 23.2239H8.38651L12.6286 10.0757L16.8531 23.2239H19.6694L25.2018 5.06542H21.7481L17.9589 17.5239Z" fill="white"/>
<path d="M49.7673 8.20921H59.1039L48.8276 22.6681V23.2239H64.1677V20.0801H54.4109L64.67 5.63739V5.06541H49.7673V8.20921Z" fill="white"/>
<path d="M41.8466 6.97973C40.2941 5.35506 38.1761 4.50017 35.6841 4.50017C30.4104 4.50017 26.4341 8.653 26.4341 14.1596C26.4341 19.6657 30.4104 23.8179 35.6841 23.8179C38.1703 23.8179 40.2884 22.9682 41.8466 21.3546V23.4371H45.3913V4.88222H41.8466V6.97973ZM36.0454 20.4725C32.5642 20.4725 30.0364 17.8176 30.0364 14.1597C30.0364 10.5133 32.5641 7.86651 36.0454 7.86651C39.5161 7.86651 42.0359 10.5133 42.0359 14.1597C42.0359 17.8176 39.5162 20.4725 36.0454 20.4725Z" fill="white"/>
<path d="M81.1799 15.3427C81.1799 18.6024 79.3909 20.4725 76.2733 20.4725C73.1441 20.4725 71.3493 18.6024 71.3493 15.3427V4.8822H67.8035V15.6286C67.8035 21.6729 72.3662 23.8179 76.2733 23.8179C80.1722 23.8179 84.7246 21.6729 84.7246 15.6286V4.8822H81.1799V15.3427Z" fill="white"/>
<path d="M105.227 11.1858C105.127 10.4455 104.936 9.68901 104.657 8.91575C104.378 8.14249 103.973 7.42767 103.442 6.77193C102.911 6.11676 102.221 5.58713 101.372 5.18315C100.523 4.77974 99.4711 4.5783 98.2199 4.5783C96.5879 4.5783 95.197 4.93138 94.0462 5.6375C93.3415 6.06951 92.7386 6.60648 92.2353 7.24613V0.198654H89.1003V23.2241H92.6542V13.7748C92.6542 12.6988 92.7743 11.7854 93.0143 11.0342C93.2556 10.2835 93.5846 9.67808 94.0035 9.21851C94.4225 8.75895 94.9119 8.42556 95.4705 8.21838C96.0292 8.01059 96.6213 7.90697 97.248 7.90697C98.2084 7.90697 98.9886 8.10316 99.5865 8.49562C100.184 8.88809 100.648 9.40318 100.977 10.0422C101.307 10.6811 101.531 11.3734 101.648 12.1189C101.766 12.8644 101.825 13.5896 101.825 14.2957V23.2242H105.379V13.1358C105.379 12.5755 105.328 11.9255 105.227 11.1858Z" fill="white"/>
<path d="M112.143 23.5851C113.721 23.5851 115 22.302 115 20.7193C115 19.1366 113.721 17.8535 112.143 17.8535C110.565 17.8535 109.285 19.1366 109.285 20.7193C109.285 22.302 110.565 23.5851 112.143 23.5851Z" fill="white"/>
</svg>
