<svg width="24" height="24" viewBox="0 0 24 24" fill="none" xmlns="http://www.w3.org/2000/svg">
<g clip-path="url(#clip0_505_54)">
<path d="M12 0C5.388 0 0 5.388 0 12C0 18.612 5.388 24 12 24C18.612 24 24 18.612 24 12C24 5.388 18.612 0 12 0ZM1.212 12C1.212 10.44 1.548 8.952 2.148 7.608L7.296 21.708C3.696 19.956 1.212 16.272 1.212 12ZM12 22.788C10.944 22.788 9.924 22.632 8.952 22.344L12.192 12.936L15.504 22.02C15.528 22.068 15.552 22.128 15.576 22.164C14.46 22.572 13.26 22.788 12 22.788ZM13.488 6.936C14.136 6.9 14.724 6.828 14.724 6.828C15.3 6.756 15.24 5.904 14.652 5.94C14.652 5.94 12.9 6.072 11.772 6.072C10.716 6.072 8.928 5.94 8.928 5.94C8.352 5.916 8.28 6.804 8.868 6.84C8.868 6.84 9.42 6.912 9.996 6.948L11.676 11.556L9.312 18.636L5.388 6.936C6.036 6.912 6.624 6.84 6.624 6.84C7.2 6.768 7.14 5.916 6.552 5.952C6.552 5.952 4.8 6.084 3.672 6.084C3.468 6.084 3.228 6.084 2.976 6.072C4.92 3.144 8.232 1.212 12 1.212C14.808 1.212 17.364 2.28 19.284 4.044C19.236 4.044 19.188 4.032 19.14 4.032C18.084 4.032 17.328 4.956 17.328 5.952C17.328 6.84 17.844 7.596 18.384 8.484C18.792 9.204 19.272 10.128 19.272 11.46C19.272 12.384 18.912 13.452 18.456 14.952L17.376 18.552L13.488 6.936ZM21.468 6.828C22.8152 9.2949 23.1465 12.1902 22.3912 14.8976C21.6359 17.605 19.8537 19.9108 17.424 21.324L20.724 11.796C21.336 10.26 21.54 9.024 21.54 7.932C21.54 7.536 21.516 7.164 21.468 6.828Z" fill="white"/>
</g>
<defs>
<clipPath id="clip0_505_54">
<rect width="24" height="24" fill="white"/>
</clipPath>
</defs>
</svg>
